<?xml version="1.0" encoding="UTF-8"?>
<svg id="Capa_1" data-name="Capa 1" xmlns="http://www.w3.org/2000/svg" version="1.1" viewBox="0 0 150 68.2">
  <defs>
    <style>
      .cls-1 {
        fill: #525f6b;
        fill-rule: evenodd;
        stroke-width: 0px;
      }
    </style>
  </defs>
  <path class="cls-1" d="M24.4,42.3c0,.6-.4,1.1-1,1.4-.5.3-1,.5-1.4.7-1,.3-2,.7-3.1,1.1-1.1.4-2.2.8-3.1,1.1-1.1.4-2.2.7-3.2,1.1-.8.3-1.5.8-2.2,1.3-.6.6-1.1,1.2-1.6,1.9-.5.8-.7,1.8-.7,2.9,0,2.3.6,4.1,1.7,5.2,1.1,1.2,3.2,1.7,6.4,1.7s5.3-.6,6.5-1.8c1.1-1.2,1.7-2.9,1.7-5.2v-11.4h0ZM16.2,17.7c5.6,0,9.7,1.1,12.3,3.2,2.6,2.1,3.9,4.8,3.9,8.1v27.5c0,1.1-.2,2.3-.6,3.7-.4,1.3-1.2,2.6-2.4,3.7-1.2,1.1-2.8,2.1-4.9,2.8-2.1.7-4.8,1.1-8.2,1.1s-6.1-.4-8.2-1.1-3.8-1.7-4.9-2.8c-1.1-1-2-2.3-2.4-3.7-.4-1.3-.6-2.6-.6-3.7v-4.4c0-2.3.6-4.5,1.9-6.4,1.3-1.9,3-3.3,5.3-4.1,1.1-.4,2.4-.8,3.9-1.3,1.5-.5,2.8-1,4.2-1.4,1.4-.4,2.6-.9,3.6-1.3.6-.2,1.2-.5,1.9-.7l1-.5c.4-.2.8-.6,1.2-1,.4-.4.7-.9,1-1.5.3-.6.5-1.3.5-1.9v-1.8c0-.7-.1-1.3-.4-1.9-.2-.7-.7-1.3-1.3-1.8-.6-.6-1.5-1-2.5-1.3-1-.3-2.4-.5-3.9-.5-3.2,0-5.3.6-6.4,1.9-1,1.1-1.5,2.5-1.6,4.1,0,.3-.3.6-.6.6H.7c-.3.1-.6-.2-.6-.5v-1.6c0-1.6.3-3,.9-4.4.6-1.4,1.6-2.6,2.9-3.6,1.3-1,3-1.8,5.1-2.4,2-.7,4.4-.9,7.3-.9h0ZM142,42.3c0,.6-.4,1.1-1,1.4-.5.3-1,.5-1.4.7-1,.3-2,.7-3.1,1.1-1.1.4-2.2.8-3.1,1.1-1.1.4-2.2.7-3.2,1.1-.8.3-1.5.8-2.2,1.3-.6.6-1.1,1.2-1.6,1.9-.5.8-.7,1.8-.7,2.9,0,2.3.6,4.1,1.7,5.2,1.1,1.2,3.2,1.7,6.4,1.7s5.3-.6,6.5-1.8c1.1-1.2,1.7-2.9,1.7-5.2v-11.4h0ZM133.8,17.7c5.6,0,9.7,1.1,12.3,3.2,2.6,2.1,3.9,4.8,3.9,8.1v27.5c0,1.1-.2,2.3-.6,3.7-.4,1.3-1.2,2.6-2.4,3.7-1.2,1.1-2.8,2.1-4.9,2.8-2.1.7-4.8,1.1-8.2,1.1s-6.1-.4-8.2-1.1-3.8-1.7-4.9-2.8c-1.1-1-1.9-2.3-2.4-3.7-.4-1.3-.6-2.6-.6-3.7v-4.4c0-2.3.6-4.5,1.9-6.4,1.3-1.9,3-3.3,5.3-4.1,1.1-.4,2.4-.8,3.9-1.3,1.5-.5,2.8-1,4.2-1.4,1.4-.4,2.6-.9,3.6-1.3.6-.2,1.2-.5,1.9-.7l1-.5c.4-.2.8-.6,1.2-1,.4-.5.8-1,1-1.5.3-.6.5-1.3.5-1.9v-1.8c0-.7-.1-1.3-.4-1.9-.2-.7-.7-1.3-1.3-1.8-.6-.6-1.5-1-2.5-1.3-1-.3-2.4-.5-3.9-.5-3.2,0-5.3.6-6.4,1.9-1,1.1-1.5,2.5-1.6,4.1,0,.3-.3.6-.6.6h-6.9c-.3,0-.6-.3-.6-.6v-1.6c0-1.6.3-3,.9-4.4.6-1.4,1.6-2.6,2.9-3.6,1.3-1,3-1.8,5.1-2.4,1.9-.6,4.4-.8,7.2-.8h0ZM109.4,17.9h4.6c.4,0,.7.4.6.8l-1.5,5.8c0,.3-.3.4-.6.4h-3.2c-1.7,0-3.1.2-4.2.7-1,.4-1.9.9-2.4,1.6-.6.6-.9,1.2-1.1,1.8-.2.6-.2,1.2-.2,1.8v35.8c0,.3-.3.6-.6.6h-6.8c-.3,0-.6-.3-.6-.6V29.2c0-.7.1-1.7.4-2.9.2-1.3.9-2.5,2-3.8,1.1-1.2,2.7-2.3,4.8-3.2,2.2-.9,5.1-1.3,8.9-1.3h0ZM86.4,55.2v1.7c0,.7-.1,1.7-.4,3-.2,1.2-.9,2.5-2,3.7-1.1,1.2-2.7,2.3-4.8,3.2-2.2.9-5.1,1.3-8.9,1.3s-6.8-.4-8.9-1.3c-2.2-.9-3.8-1.9-4.8-3.2-1.1-1.2-1.8-2.5-2-3.8-.2-1.3-.4-2.2-.4-3V19.4c0-.3.3-.6.6-.6h6.8c.3,0,.6.3.6.6v35.1c0,1.2.2,2,.3,2.7.2.7.5,1.3,1,1.9.5.6,1.3,1.1,2.4,1.5,1,.4,2.4.6,4.2.6s3.3-.2,4.4-.6c1.1-.4,1.9-.9,2.4-1.4.6-.6,1-1.2,1.1-1.8.2-.7.4-1.2.4-2.8V19.4c0-.3.3-.6.6-.6h6.8c.3,0,.6.3.6.6v35.9h0ZM39.8,0h6.8c.3,0,.6.3.6.6v66.3c0,.3-.3.6-.6.6h-6.8c-.3,0-.6-.3-.6-.6V.6c0-.3.3-.6.6-.6h0Z"/>
</svg>