<?xml version="1.0" encoding="UTF-8"?>
<svg id="Capa_1" data-name="Capa 1" xmlns="http://www.w3.org/2000/svg" version="1.1" viewBox="0 0 15 15">
  <defs>
    <style>
      .cls-1 {
        fill: #000;
        stroke-width: 0px;
      }
    </style>
  </defs>
  <path class="cls-1" d="M11.7,0H3.2c-.9,0-1.7.8-1.7,1.7v11.6c0,.9.8,1.7,1.7,1.7h8.5c.9,0,1.7-.8,1.7-1.7V1.7c0-.9-.8-1.7-1.7-1.7ZM3.1,5.8c0-.4.3-.7.7-.7h.3c-.3-.3-.4-.7-.4-1.1,0-.9.8-1.7,1.7-1.7s1.7.8,1.7,1.7-.2.8-.4,1.1h.2c.4,0,.7.3.7.7v1.2c0,.4-.3.7-.7.7h-3.1c-.4,0-.7-.3-.7-.7v-1.2h0ZM11.2,12.8H3.8c-.4,0-.7-.3-.7-.7s.3-.7.7-.7h7.3c.4,0,.7.3.7.7s-.3.7-.7.7ZM11.2,10.2H3.8c-.4,0-.7-.3-.7-.7s.3-.7.7-.7h7.3c.4,0,.7.3.7.7s-.3.7-.7.7ZM11.2,7.7h-2.2c-.4,0-.7-.3-.7-.7s.3-.7.7-.7h2.2c.4,0,.7.3.7.7s-.3.7-.7.7Z"/>
</svg>