<?xml version="1.0" encoding="UTF-8"?>
<svg id="Capa_1" data-name="Capa 1" xmlns="http://www.w3.org/2000/svg" version="1.1" viewBox="0 0 512 512">
  <defs>
    <style>
      .cls-1 {
        fill: #000;
        stroke-width: 0px;
      }
    </style>
  </defs>
  <path class="cls-1" d="M32,51.2v409.7c0,10.6,8.6,19.2,19.2,19.2h409.7c10.6,0,19.2-8.6,19.2-19.2V51.2c0-10.6-8.6-19.2-19.2-19.2H51.2c-10.6,0-19.2,8.6-19.2,19.2ZM272,380c0,43.6-25.8,64.9-63.1,64.9s-53.2-17.4-63.2-38.5h0l18.4-11.1c8-4.9,18.4-3.2,24.5,4,4.1,4.9,9.3,8.1,17.5,8.1,12,0,21.9-5.4,21.9-26.5v-121.7c0-10.6,8.6-19.2,19.2-19.2h5.7c10.6,0,19.2,8.6,19.2,19.2v120.8ZM371.4,443.9c-39.1,0-64.4-17.6-76.7-42h0l19.8-11.5c7.5-4.4,17.1-3.2,23.2,3.1,7.9,8.1,18.1,13.1,32.8,13.1s27.6-7.7,27.6-19.8-10.4-19.5-29.7-28l-10.5-4.5c-30.4-12.9-50.5-29.2-50.5-63.5s24-54.6,61.6-54.6,32.4,3.7,44.1,13.4,8.8,23.8-2.1,30.7l-.8.5c-7.2,4.6-16.5,3.6-22.9-2.2s-11-6.6-18.5-6.6c-12.3,0-20.1,7.8-20.1,18s7.8,17.7,25.9,25.6l10.5,4.5c35.8,15.3,55.9,31,55.9,66.2,0,37.9-29.8,57.6-69.8,57.6Z"/>
</svg>