<?xml version="1.0" encoding="UTF-8"?>
<svg id="Capa_1" data-name="Capa 1" xmlns="http://www.w3.org/2000/svg" xmlns:sketch="http://www.bohemiancoding.com/sketch/ns" version="1.1" viewBox="0 0 40 30.5">
  <defs>
    <style>
      .cls-1 {
        fill: #005074;
        stroke-width: 0px;
      }
    </style>
  </defs>
  <path class="cls-1" d="M40,7.2v20.2c0,1.7-1.4,3.1-3.1,3.1H3.1c-1.7,0-3.1-1.4-3.1-3.1V7.2c0-1.7,1.4-3.1,3.1-3.1h8.1v-1c0-1.7,1.4-3.1,3.1-3.1h11.5c1.7,0,3.1,1.4,3.1,3.1v1h8.1c1.7,0,3.1,1.4,3.1,3.1h0ZM29.5,17.3c0-5.2-4.2-9.5-9.5-9.5-5.2,0-9.5,4.2-9.5,9.5,0,5.2,4.2,9.5,9.5,9.5s9.5-4.2,9.5-9.5h0ZM24.5,12.8c2.5,2.5,2.5,6.5,0,9s-6.5,2.5-9,0c-2.5-2.5-2.5-6.5,0-9,1.2-1.2,2.8-1.9,4.5-1.9,1.7,0,3.3.7,4.5,1.9h0ZM22.7,3.7c0,.9.7,1.6,1.5,1.6s1.6-.7,1.6-1.5c0-.9-.7-1.6-1.5-1.6,0,0,0,0,0,0-.9,0-1.5.7-1.5,1.5Z"/>
</svg>