<?xml version="1.0" encoding="UTF-8"?>
<svg id="Capa_1" data-name="Capa 1" xmlns="http://www.w3.org/2000/svg" version="1.1" viewBox="0 0 53.1 28.7">
  <defs>
    <style>
      .cls-1 {
        fill: #464a4f;
        stroke-width: 0px;
      }
    </style>
  </defs>
  <path class="cls-1" d="M26.5,0C11.7,0,0,6.3,0,14.4s11.7,14.4,26.5,14.4,26.5-6.3,26.5-14.4S41.4,0,26.5,0ZM23.8,4.4h2.9l-.9,4.4h2.6c1.6,0,2.7.2,3.4.8.6.6.8,1.5.6,2.8l-1.1,5.3h-2.9l1.1-4.9c.1-.7,0-1.1-.1-1.4-.2-.2-.7-.4-1.5-.4h-2.3l-1.4,6.6h-2.9l2.8-13.3ZM11.1,8.8h5.9c2.8,0,4.5,1.9,3.8,4.7-.8,3.3-2.8,4.2-6.7,4.2h-1.8l-.6,3.3h-2.9l2.2-12.2ZM34.3,8.8h5.9c2.8,0,4.5,1.9,3.8,4.7-.8,3.3-2.8,4.2-6.7,4.2h-1.8l-.6,3.3h-2.9l2.2-12.2ZM13.6,11.1l-.8,4.4h1.9c1.6,0,3.2-.2,3.4-2.6,0-.9-.3-1.8-2.2-1.8h-2.3ZM36.8,11.1l-.8,4.4h1.9c1.6,0,3.2-.2,3.4-2.6,0-.9-.3-1.8-2.2-1.8h-2.3Z"/>
</svg>