<?xml version="1.0" encoding="UTF-8"?>
<svg id="Capa_1" data-name="Capa 1" xmlns="http://www.w3.org/2000/svg" xmlns:sketch="http://www.bohemiancoding.com/sketch/ns" version="1.1" viewBox="0 0 50 38.3">
  <defs>
    <style>
      .cls-1 {
        fill: #005074;
        stroke-width: 0px;
      }
    </style>
  </defs>
  <path class="cls-1" d="M50,30.2l-1.7-3.5-4.2,2.4h-.1c0-.1,0-.2,0-.2,0,0,3.8-2.3,3.9-2.3,1.4-1,1.3-3.6-.2-5.8-1.5-2.2-3.8-3.2-5.1-2.2l-3.6,2.2c-.1,0-.2.1-.3.2-.6.5-.8,1.5-.6,2.7h-.1v-3.3l-3.6-5.8-2.1-1.4s.3-.2.4-.2c1.6-1.1,1.5-4.2-.2-6.7-1.7-2.6-4.3-3.7-5.9-2.6l-7.4,4.4v.9c0,0-.4.3-.4.3l-4.6-1.8v-1l6.4-3.4-3.3-3L0,6.5l5.1,4.7,5.7-3v1.5l3,2.3-1.5.8-2-.4-3,1.7v.5l-4.5,2.7c-.1,0-.3.1-.4.2-1.6,1.2-.8,5.4.6,7.5,1.4,2.2,3.2,3.5,4.8,3.5.5,0,1.1-.2,1.5-.5l4.7-2.8c.1,0,.3-.1.4-.2.3-.2.5-.5.7-.8l4.1,3.1,5.5,1.2c0,0-.2,0-.2.1-1.5,1.1-.7,4.8.5,6.6,1.3,1.9,2.9,3.1,4.2,3.1s.9-.1,1.3-.4l4-2.4,4.5,2,10.9-7.3M47.2,27.7l1.4,3.1-.9.6-1.6-3,1.1-.6M15.9.8l2.9,2.8-1.1.6-3.2-2.9,1.4-.5M7.4,9.6l-4.8-3.7,2-.8,4.2,3.7-1.5.8M39.3,21.6c.2-.2.5-.2.8-.2.9,0,2.2.7,3.2,2.2,1.3,2,1.2,4.1.4,4.7,0,0-.2,0-.3.1l-1.2-1.1c.3,0,.5,0,.7-.2.7-.5.7-1.9,0-3.1-.8-1.2-2-1.7-2.7-1.2-.5.4-.5,1.1-.2,2l1.2-.7c.7-.4,1.7.7,1.2,1.4l-1.2.8-1.8-1.7c-.4-1.3-.4-2.6,0-3M39.2,32.3l-3.2,2c.5-1,.5-2.3,0-3.7l3.2,1.8M35.9,29.3l-.3.2c-.2-.3-.3-.7-.6-1-.1-.2-.3-.4-.4-.6h0c.7-.4,1.7.6,1.2,1.4M22,6.8l11.9,8,3.7,5.8-1,.6-3.7-5.8-11.9-7.9,1-.6M29.5,18.1c0,0,.2,0,.3-.2-.4,1.5-1.3,2.2-3.1,2.2s-5.3-1.3-5.3-3.8,1.9-4.5,4.3-4.5,3.8,1.5,4.2,3.6c0-.1-.2-.2-.3-.2-2.4.2-5.6.2-5.7,1.1-.1.9,1.9,2.1,5.6,1.8M11.8,9.1v-1.4l1.6-.8v1.2l9.7,3.7-2.8,1.4-8.4-4M10.5,14.1c-.6-.2-1.3-.3-1.9-.1l.9-.5,1,.6M7.9,27.6c-1.3,0-2.8-1.2-4.1-3.1-1.2-1.9-1.9-5.6-.8-6.4.3-.2.7-.3,1.1-.3,1.4,0,3.2,1.2,4.4,3,1.6,2.5,1.8,5.5.4,6.5-.3.2-.6.3-1,.3M19.4,22.4l-3.9-2.8c-.4-1.3-1.2-2.6-2.1-3.6l8,5.4,9.1,3.6-1.4.8-9.6-3.4M29.3,37.5c-1.1,0-2.5-1.1-3.5-2.7-1.2-1.8-1.6-4.9-.7-5.5.3-.2.6-.3.9-.3,1.2,0,2.7,1.1,3.8,2.6,1.4,2.2,1.6,4.7.4,5.6-.2.2-.5.3-.8.3M37.7,33.5l3.4,2.3-.9.6-3.6-2.3,1.1-.7"/>
</svg>