<?xml version="1.0" encoding="UTF-8"?>
<svg id="Capa_1" data-name="Capa 1" xmlns="http://www.w3.org/2000/svg" xmlns:sketch="http://www.bohemiancoding.com/sketch/ns" version="1.1" viewBox="0 0 40 40">
  <defs>
    <style>
      .cls-1 {
        fill: #005074;
        stroke-width: 0px;
      }
    </style>
  </defs>
  <path class="cls-1" d="M36.2,8.4h0s0,0,0,0c0,0,0,0,0,0-2.5-3.4-6-6.1-10.1-7.4h0c-1.9-.6-4-1-6.2-1s-4.2.3-6.2,1h0c-4.1,1.3-7.6,3.9-10.1,7.4h0C1.4,11.6,0,15.6,0,20H0c0,4.5,1.5,8.6,3.9,11.9,2.4,3.3,5.8,5.8,9.7,7.1,0,0,0,0,0,0h0s0,0,0,0c2,.7,4.1,1,6.3,1s4.3-.4,6.3-1c3.9-1.3,7.3-3.8,9.7-7.1h0c2.5-3.3,3.9-7.4,3.9-11.9h0c0-4.4-1.4-8.4-3.7-11.6ZM20.7,5.9l3.7-2.7c.3,0,.6.2,1,.3h0c3.5,1.1,6.6,3.4,8.7,6.4h0c.2.3.4.6.6.8l-1.4,4.3-7.9,2.6-4.6-3.4V5.9h0ZM5.9,9.9h0c2.1-3,5.2-5.2,8.7-6.4h0c.3-.1.6-.2,1-.3l3.7,2.7v8.3l-4.6,3.4-7.9-2.6-1.4-4.3c.2-.3.4-.6.6-.8ZM6.7,31.1c-.2-.3-.4-.5-.6-.8h0c-2.1-2.9-3.4-6.4-3.4-10.3h0c0-.4,0-.7,0-1l3.6-2.6,7.9,2.6,1.8,5.4-4.9,6.8h-4.4ZM26.4,36c-.3.1-.6.2-.9.4h0c-1.7.6-3.5.9-5.4.9s-3.7-.3-5.4-.9h0c-.3-.1-.6-.2-.9-.4l-1.4-4.2,4.9-6.8h5.7l4.9,6.9-1.3,4.1ZM37.3,20c0,3.9-1.3,7.4-3.4,10.3h0c-.2.3-.4.5-.6.8h-4.5l-4.8-6.7,1.8-5.4,7.9-2.6,3.6,2.6c0,.3,0,.7,0,1h0s0,0,0,0Z"/>
  <path class="cls-1" d="M26.3,38.9s0,0,0,0c0,0,0,0,0,0h0Z"/>
</svg>