<?xml version="1.0" encoding="UTF-8"?>
<svg id="Capa_1" data-name="Capa 1" xmlns="http://www.w3.org/2000/svg" xmlns:sketch="http://www.bohemiancoding.com/sketch/ns" version="1.1" viewBox="0 0 40 28.3">
  <defs>
    <style>
      .cls-1 {
        fill: #005074;
        stroke-width: 0px;
      }
    </style>
  </defs>
  <path class="cls-1" d="M27.9,0c-5.8,2.9-9.7,2.6-15.7,0C1.8,0-4.3,28.3,3.6,28.3s7.5-8.3,16.6-8.3,11.7,8.2,16.6,8.2c7.9,0-.1-28.1-8.8-28.1ZM12.3,14.1c-2.9,0-5.3-2.4-5.3-5.3s2.4-5.3,5.3-5.3,5.3,2.4,5.3,5.3c0,2.9-2.4,5.3-5.3,5.3ZM25.5,9.4c-.9-.3-1.3-1.2-1.1-2,.3-.9,1.2-1.3,2-1.1.9.3,1.3,1.2,1.1,2-.3.9-1.2,1.3-2,1.1ZM33.8,10.8c-.3.9-1.2,1.3-2,1.1-.9-.3-1.3-1.2-1.1-2,.3-.9,1.2-1.3,2-1.1.9.3,1.3,1.2,1.1,2ZM31.7,7c-.3.9-1.2,1.3-2,1.1-.9-.3-1.3-1.2-1.1-2,.3-.9,1.2-1.3,2-1.1.9.3,1.3,1.2,1.1,2ZM29.5,12c-.3.9-1.2,1.3-2,1.1-.9-.3-1.3-1.2-1.1-2,.3-.9,1.2-1.3,2-1.1.9.3,1.3,1.2,1.1,2ZM15,9c0,1.5-1.2,2.7-2.7,2.7s-2.7-1.2-2.7-2.7,1.2-2.7,2.7-2.7c1.5,0,2.7,1.2,2.7,2.7Z"/>
</svg>