<?xml version="1.0" encoding="UTF-8"?>
<svg id="Capa_1" data-name="Capa 1" xmlns="http://www.w3.org/2000/svg" xmlns:sketch="http://www.bohemiancoding.com/sketch/ns" version="1.1" viewBox="0 0 40 40">
  <defs>
    <style>
      .cls-1 {
        fill: #005074;
        fill-rule: evenodd;
        stroke-width: 0px;
      }
    </style>
  </defs>
  <g id="Page-1" sketch:type="MSPage">
    <g id="Icon-Set-Filled" sketch:type="MSLayerGroup">
      <path id="tv-television" class="cls-1" d="M31.2,22.5c-2.1,0-3.8-1.7-3.8-3.8s1.7-3.8,3.8-3.8,3.8,1.7,3.8,3.8-1.7,3.8-3.8,3.8h0ZM33.8,31.2h-5c-.7,0-1.2-.6-1.2-1.2s.6-1.2,1.2-1.2h5c.7,0,1.2.6,1.2,1.2s-.6,1.2-1.2,1.2h0ZM33.8,35h-5c-.7,0-1.2-.6-1.2-1.2s.6-1.2,1.2-1.2h5c.7,0,1.2.6,1.2,1.2s-.6,1.2-1.2,1.2h0ZM25,32.5c0,1.4-1.1,2.5-2.5,2.5H7.5c-1.4,0-2.5-1.1-2.5-2.5v-15c0-1.4,1.1-2.5,2.5-2.5h15c1.4,0,2.5,1.1,2.5,2.5v15h0ZM35,10h-11.6l11-7.5c.6-.4.7-1.2.4-1.8-.4-.6-1.1-.8-1.7-.4,0,0-12,8.3-13,8.9L7,.2c-.6-.4-1.4-.2-1.7.4-.4.6-.2,1.4.4,1.8l11,7.5H5c-2.8,0-5,2.2-5,5v20c0,2.8,2.2,5,5,5h30c2.8,0,5-2.2,5-5V15c0-2.8-2.2-5-5-5h0ZM30,20h2.5v-2.5h-2.5v2.5ZM21.2,17.5h-12.5c-.7,0-1.2.6-1.2,1.2v12.5c0,.7.6,1.2,1.2,1.2h12.5c.7,0,1.2-.6,1.2-1.2v-12.5c0-.7-.6-1.2-1.2-1.2h0Z" sketch:type="MSShapeGroup"/>
    </g>
  </g>
</svg>