<?xml version="1.0" encoding="UTF-8"?>
<svg id="Capa_1" data-name="Capa 1" xmlns="http://www.w3.org/2000/svg" version="1.1" viewBox="0 0 40.1 40.1">
  <defs>
    <style>
      .cls-1 {
        fill: #464a4f;
        stroke-width: 0px;
      }
    </style>
  </defs>
  <path class="cls-1" d="M0,1.6v36.8c0,.9.7,1.6,1.6,1.6h36.8c.9,0,1.6-.7,1.6-1.6V1.6c0-.9-.7-1.6-1.6-1.6H1.6C.7,0,0,.7,0,1.6ZM21.5,31.1c0,3.9-2.3,5.8-5.6,5.8s-4.8-1.6-5.7-3.4h0l1.7-1c.7-.4,1.6-.3,2.1.3s.8.8,1.6.8,2-.5,2-2.4v-11c0-.9.7-1.6,1.6-1.6h.7c.9,0,1.6.7,1.6,1.6v10.9ZM30.4,36.9c-3.5,0-5.8-1.6-6.9-3.8h0l1.8-1.1c.7-.4,1.5-.2,2,.3s1.6,1.2,2.9,1.2,2.5-.7,2.5-1.8-.9-1.7-2.7-2.5l-.9-.4c-2.7-1.2-4.5-2.6-4.5-5.7s2.2-4.9,5.5-4.9,3,.4,4.1,1.3.7,2-.2,2.6h-.2c-.6.5-1.4.4-2-.1s-1-.6-1.7-.6c-1.1,0-1.8.7-1.8,1.6s.7,1.6,2.3,2.3l.9.4c3.2,1.4,5,2.8,5,5.9,0,3.4-2.7,5.2-6.2,5.2Z"/>
</svg>