<?xml version="1.0" encoding="UTF-8"?>
<svg id="Capa_1" data-name="Capa 1" xmlns="http://www.w3.org/2000/svg" version="1.1" viewBox="0 0 60 33.8">
  <defs>
    <style>
      .cls-1 {
        fill: #464a4f;
        stroke-width: 0px;
      }
    </style>
  </defs>
  <g>
    <path class="cls-1" d="M30,20c-.2,0-.4,0-.5.1l-5,2.9c-.3.2-.5.5-.5.9v5.8c0,.4.2.7.5.9l1.3.8c.6.3.9.3,1.2.3.9,0,1.5-.6,1.5-1.6v-5.7c0,0,0-.1-.2-.1h-.6c0,0-.2,0-.2.1v5.7c0,.4-.5.9-1.2.5l-1.4-.8s0,0,0-.1v-5.8c0,0,0-.1,0-.1l5-2.9s.1,0,.2,0l5,2.9s0,0,0,.1v5.8c0,0,0,.1,0,.1l-5.1,2.9s-.1,0-.2,0l-1.3-.8s0,0-.1,0c-.4.2-.4.2-.8.3,0,0-.2,0,0,.2l1.7,1c.2,0,.3.1.5.1.2,0,.4,0,.5-.1l5.1-2.9c.3-.2.5-.5.5-.9v-5.8c0-.4-.2-.7-.5-.9l-5.1-2.9c-.2,0-.3-.1-.5-.1h0Z"/>
    <path class="cls-1" d="M31.4,24.2c-1.4,0-2.3.6-2.3,1.6s.9,1.4,2.2,1.5c1.7.2,1.8.4,1.8.7,0,.6-.4.8-1.5.8s-1.6-.3-1.7-1c0,0,0-.1-.1-.1h-.7c0,0-.2,0-.2.2,0,.8.5,1.9,2.7,1.9s2.5-.6,2.5-1.7-.7-1.4-2.3-1.6c-1.6-.2-1.7-.3-1.7-.7s.1-.7,1.3-.7,1.4.2,1.6.9c0,0,0,.1.1.1h.7s0,0,.1,0c0,0,0,0,0-.1-.1-1.2-.9-1.8-2.5-1.8h0Z"/>
  </g>
  <g>
    <path class="cls-1" d="M40.4,0c0,0-.1,0-.2,0,0,0-.2.2-.2.3v8.2c0,0,0,.2-.1.2,0,0-.2,0-.2,0l-1.3-.8c-.2-.1-.4-.1-.6,0l-5.4,3.1c-.2.1-.3.3-.3.6v6.2c0,.2.1.4.3.6l5.4,3.1c.2.1.4.1.6,0l5.4-3.1c.2-.1.3-.3.3-.6V2.4c0-.2-.1-.5-.3-.6L40.5,0s-.1,0-.2,0h0ZM6,7.7c-.1,0-.2,0-.3,0L.3,10.9C.1,11,0,11.2,0,11.4v8.3c0,.1,0,.2.2.3,0,0,.2,0,.3,0l3.2-1.8c.2-.1.3-.3.3-.6v-3.9c0-.2.1-.4.3-.6l1.4-.8c0,0,.2,0,.3,0,.1,0,.2,0,.3,0l1.4.8c.2.1.3.3.3.6v3.9c0,.2.1.4.3.6l3.2,1.8c0,0,.2,0,.3,0,0,0,.2-.2.2-.3v-8.3c0-.2-.1-.4-.3-.6l-5.4-3.1c0,0-.2,0-.3,0h0ZM54,7.8c-.1,0-.2,0-.3,0l-5.4,3.1c-.2.1-.3.3-.3.6v6.2c0,.2.1.4.3.6l5.3,3c.2.1.4.1.6,0l3.2-1.8c.1,0,.2-.2.2-.3,0-.1,0-.2-.2-.3l-5.4-3.1c-.1,0-.2-.2-.2-.3v-1.9c0-.1,0-.2.2-.3l1.7-1c0,0,.2,0,.3,0l1.7,1c0,0,.2.2.2.3v1.5c0,.1,0,.2.2.3.1,0,.2,0,.3,0l3.2-1.9c.2-.1.3-.3.3-.6v-1.5c0-.2-.1-.4-.3-.6l-5.3-3.1c0,0-.2,0-.3,0h0ZM38,12.4s0,0,0,0l1.8,1.1s0,0,0,.1v2.1c0,0,0,.1,0,.1l-1.8,1.1s-.1,0-.2,0l-1.8-1.1s0,0,0-.1v-2.1c0,0,0-.1,0-.1l1.8-1.1s0,0,0,0h0s0,0,0,0Z"/>
    <path class="cls-1" d="M22,7.8c-.1,0-.2,0-.3,0l-5.4,3.1c-.2.1-.3.3-.3.6v6.2c0,.2.1.4.3.6l5.4,3.1c.2.1.4.1.6,0l5.4-3.1c.2-.1.3-.3.3-.6v-6.2c0-.2-.1-.5-.3-.6l-5.4-3.1c0,0-.2,0-.3,0h0ZM54,13.3s0,0,0,0l-1,.6s0,0,0,.1v1.2s0,0,0,.1l1,.6s0,0,.1,0l1-.6s0,0,0-.1v-1.2s0,0,0-.1l-1-.6s0,0,0,0h0Z"/>
  </g>
</svg>