<?xml version="1.0" encoding="UTF-8"?>
<svg id="Capa_1" data-name="Capa 1" xmlns="http://www.w3.org/2000/svg" version="1.1" viewBox="0 0 39.4 44.4">
  <defs>
    <style>
      .cls-1 {
        fill: #464a4f;
        stroke-width: 0px;
      }
    </style>
  </defs>
  <g id="c133de6af664cd4f011a55de6b001b19">
    <path class="cls-1" d="M39.4,0l-3.7,40.1-16,4.3-16-4.3L0,0h39.4ZM32,8.1H7.2l.6,4.8h12.6l-.7.3-11.5,4.8.4,4.7h11.1s5.9,0,5.9,0l-.4,6.3-5.6,1.6h0s0,0,0,0l-5.4-1.4-.3-3.9h-5l.7,7.6,10.1,3h0s0,0,0,0l10.1-2.9,1.3-15h-11.4,0s11.8-5.1,11.8-5.1l.5-4.8Z"/>
  </g>
</svg>