<?xml version="1.0" encoding="UTF-8"?>
<svg id="Capa_1" data-name="Capa 1" xmlns="http://www.w3.org/2000/svg" xmlns:sketch="http://www.bohemiancoding.com/sketch/ns" version="1.1" viewBox="0 0 40 40">
  <defs>
    <style>
      .cls-1 {
        fill: #005074;
        stroke-width: 0px;
      }
    </style>
  </defs>
  <g id="layer1">
    <path id="path827" class="cls-1" d="M20,0c-3.8,0-7,2.7-7.8,6.2-1-1.3-2.5-2.2-4.3-2.2-2.9,0-5.3,2.4-5.3,5.3s.3,1.9.7,2.6h23.6c.7-1.2,1.1-2.5,1.1-4,0-4.4-3.6-8-8-8Z"/>
    <path id="rect835" class="cls-1" d="M1.3,13.3c-.7,0-1.3.6-1.3,1.3v24c0,.7.6,1.3,1.3,1.3h26.7c.7,0,1.3-.6,1.3-1.3V14.7c0-.7-.6-1.3-1.3-1.3H1.3ZM5.3,17.3h2.7c1.8,0,1.8,2.7,0,2.7h-2.7c-1.8,0-1.8-2.7,0-2.7Z"/>
    <path id="rect845" class="cls-1" d="M36,17.3c-1.7,0-3.2,1.1-3.8,2.7h-1.6v14.7h1.6c.6,1.5,2,2.7,3.8,2.7h2.7c.7,0,1.3-.6,1.3-1.3v-17.3c0-.7-.6-1.3-1.3-1.3h-2.7Z"/>
  </g>
</svg>