<?xml version="1.0" encoding="UTF-8"?>
<svg id="Capa_1" data-name="Capa 1" xmlns="http://www.w3.org/2000/svg" version="1.1" viewBox="0 0 28 27.1">
  <defs>
    <style>
      .cls-1 {
        fill: #383838;
        stroke-width: 0px;
      }
    </style>
  </defs>
  <g>
    <g>
      <path class="cls-1" d="M18.2,9.4c0,2-.9,3.1-2.6,3.1h-1.9c-.2,0-.3-.1-.3-.3v-2.2c0-.2.1-.3.3-.3h1.4c.5,0,.7-.3.7-.9v-1c0-.5-.2-.9-.7-.9h-2.5l-1.4,5.1c-.1.4-.3.6-.7.6h-4.1c-1.7,0-2.6-1.1-2.6-3.1v-2.4c0-2,.9-3.1,2.6-3.1h1.9c.2,0,.3.1.3.3v2.2c0,.2,0,.3-.3.3h-1.4c-.5,0-.7.3-.7.9v1c0,.6.2.9.7.9h2.4l1.4-5.1c.1-.4.3-.6.7-.6h4.2c1.7,0,2.6,1.1,2.6,3.1v2.4h0Z"/>
      <path class="cls-1" d="M15.7,14.6c1.7,0,2.6,1.1,2.6,3.1v2.4c0,2-.9,3.1-2.6,3.1H6.5c-1.7,0-2.6-1.1-2.6-3.1v-2.4c0-2,.9-3.1,2.6-3.1h9.2ZM6.2,19.6c0,.6.2.9.7.9h8.3c.5,0,.7-.3.7-.9v-1.2c0-.6-.2-.9-.7-.9H6.9c-.5,0-.7.3-.7.9,0,0,0,1.2,0,1.2Z"/>
    </g>
    <g>
      <circle class="cls-1" cx="21.9" cy="21.6" r="1.6"/>
      <path class="cls-1" d="M23.6,3.8h-3.4c-.3,0-.6.4-.5.8l1.1,13c.1,1.8,2.2,1.8,2.4,0l1.1-13c0-.4-.2-.8-.5-.8Z"/>
    </g>
  </g>
  <g>
    <path class="cls-1" d="M1.2,27.1c-.7,0-1.2-.6-1.2-1.2V1.2C0,.6.6,0,1.2,0h7.5c.7,0,1.2.6,1.2,1.2s-.6,1.2-1.2,1.2H2.8c-.2,0-.3.1-.3.3v21.5c0,.2.1.3.3.3h6c.7,0,1.2.6,1.2,1.2s-.6,1.2-1.2,1.2H1.2Z"/>
    <path class="cls-1" d="M19.2,27.1c-.7,0-1.2-.6-1.2-1.2s.6-1.2,1.2-1.2h6c.2,0,.3-.1.3-.3V2.8c0-.2-.1-.3-.3-.3h-6c-.7,0-1.2-.6-1.2-1.2s.6-1.2,1.2-1.2h7.5c.7,0,1.2.6,1.2,1.2v24.6c0,.7-.6,1.2-1.2,1.2h-7.5Z"/>
  </g>
</svg>