<?xml version="1.0" encoding="UTF-8"?>
<svg id="Capa_1" data-name="Capa 1" xmlns="http://www.w3.org/2000/svg" version="1.1" viewBox="0 0 40 40">
  <defs>
    <style>
      .cls-1 {
        fill: #383838;
        stroke-width: 0px;
      }
    </style>
  </defs>
  <g>
    <g>
      <path class="cls-1" d="M25.9,14.1c0,2.9-1.3,4.4-3.7,4.4h-2.7c-.3,0-.4-.1-.4-.4v-3.1c0-.3.1-.4.4-.4h2c.7,0,1-.4,1-1.3v-1.4c0-.7-.3-1.3-1-1.3h-3.6l-2,7.3c-.1.6-.4.9-1,.9h-5.9c-2.4,0-3.7-1.6-3.7-4.4v-3.4c0-2.9,1.3-4.4,3.7-4.4h2.7c.3,0,.4,0,.4.4v3.1c0,.3,0,.4-.4.4h-2c-.7,0-1,.4-1,1.3v1.4c0,.9.3,1.3,1,1.3h3.4l2-7.3c.1-.6.4-.9,1-.9h6c2.4,0,3.7,1.6,3.7,4.4v3.4h0Z"/>
      <path class="cls-1" d="M22.4,21.6c2.4,0,3.7,1.6,3.7,4.4v3.4c0,2.9-1.3,4.4-3.7,4.4h-13.1c-2.4,0-3.7-1.6-3.7-4.4v-3.4c0-2.9,1.3-4.4,3.7-4.4h13.1ZM8.8,28.7c0,.9.3,1.3,1,1.3h11.9c.7,0,1-.4,1-1.3v-1.7c0-.9-.3-1.3-1-1.3h-11.9c-.7,0-1,.4-1,1.3,0,0,0,1.7,0,1.7Z"/>
    </g>
    <g>
      <circle class="cls-1" cx="31.2" cy="31.6" r="2.3"/>
      <path class="cls-1" d="M33.6,6.1h-4.9c-.4,0-.9.6-.7,1.1l1.6,18.6c.1,2.6,3.1,2.6,3.4,0l1.6-18.6c0-.6-.3-1.1-.7-1.1,0,0-.3,0-.3,0Z"/>
    </g>
  </g>
  <path class="cls-1" d="M27.5,40c-1,0-1.7-.9-1.7-1.7s.9-1.7,1.7-1.7h8.6c.3,0,.4-.1.4-.4V3.9c0-.3-.1-.4-.4-.4h-8.6c-1,0-1.7-.9-1.7-1.7s.9-1.7,1.7-1.7h10.8c1,0,1.7.9,1.7,1.7v36.6c0,1-.9,1.7-1.7,1.7h-10.8Z"/>
  <path class="cls-1" d="M12.5,40c1,0,1.7-.9,1.7-1.7s-.9-1.7-1.7-1.7H3.9c-.3,0-.4-.1-.4-.4V3.9c0-.3.1-.4.4-.4h8.6c1,0,1.7-.9,1.7-1.7s-.9-1.7-1.7-1.7H1.7C.7,0,0,.9,0,1.7v36.6c0,1,.9,1.7,1.7,1.7h10.8Z"/>
</svg>