<?xml version="1.0" encoding="UTF-8"?>
<svg id="Layer_1" data-name="Layer 1" xmlns="http://www.w3.org/2000/svg" version="1.1" viewBox="0 0 100 98.4">
  <defs>
    <style>
      .cls-1, .cls-2, .cls-3, .cls-4 {
        fill: #646868;
      }

      .cls-1, .cls-3 {
        stroke: #646868;
        stroke-linecap: round;
        stroke-linejoin: round;
        stroke-width: .2px;
      }

      .cls-2, .cls-5, .cls-4 {
        stroke-width: 0px;
      }

      .cls-5 {
        fill: #fff;
      }

      .cls-5, .cls-3, .cls-4 {
        fill-rule: evenodd;
      }
    </style>
  </defs>
  <g>
    <g>
      <g>
        <path class="cls-1" d="M77,.4v45h0c-.1,4.8-1.3,8.9-3.4,12.5-2.1,3.6-5.2,6.8-9.1,9.5h0c-2.2,1.4-4.7,2.7-7.3,3.7-2.5,1-5,1.7-7.5,2.2h0v-.6c2.5-.4,5-1.2,7.4-2.1,2.5-1,5-2.3,7.2-3.7h0c3.9-2.7,6.8-5.7,8.8-9.3,2.1-3.5,3.2-7.6,3.4-12.2V.6h-26.7V0h27.3v.3ZM49.7,73.3h0c-2.5-.4-5.1-1.2-7.5-2.2-2.6-1-5.1-2.3-7.4-3.7h0c-3.9-2.7-6.9-5.8-9-9.5-2.1-3.6-3.2-7.7-3.4-12.5h0V0h27.3v.6h-26.7v44.7c.1,4.7,1.2,8.7,3.3,12.2,2,3.6,5,6.6,8.9,9.3h0c2.2,1.4,4.7,2.7,7.2,3.7,2.4.9,4.9,1.7,7.4,2.1h0v.6Z"/>
        <path class="cls-1" d="M77,.4v45h0c-.1,4.8-1.3,8.9-3.4,12.5-2.1,3.6-5.2,6.8-9.1,9.5h0c-2.2,1.4-4.7,2.7-7.3,3.7-2.5,1-5,1.7-7.5,2.2h-.1c-2.5-.4-5.1-1.2-7.5-2.2-2.6-1-5.1-2.3-7.4-3.7h0c-3.9-2.7-6.9-5.8-9-9.5-2.1-3.6-3.2-7.7-3.4-12.5h0V0h54.6v.3h0ZM76.5,45.4V.6H23v44.7c.1,4.7,1.2,8.7,3.3,12.2,2,3.6,5,6.6,8.9,9.3h0c2.2,1.4,4.7,2.7,7.2,3.7,2.4.9,4.9,1.7,7.4,2.1,2.5-.4,5-1.2,7.4-2.1,2.5-1,5-2.3,7.2-3.7h0c3.9-2.7,6.8-5.7,8.8-9.3,2.1-3.5,3.2-7.6,3.4-12.2Z"/>
      </g>
      <g>
        <path class="cls-1" d="M69.3,51.5h0c-.2.7-.4,1.2-.7,1.8-.3.7-.6,1.2-.9,1.8h0c-.9,1.5-2.1,2.8-3.4,4-1.5,1.4-3.1,2.5-4.7,3.5h0c-1.5.9-3.1,1.6-4.7,2.3-1.5.7-3.1,1.2-4.7,1.5h-.4c0,0,0,0,0,0v-.4h.4c1.5-.5,3.1-1,4.6-1.6,1.6-.7,3.1-1.4,4.6-2.3h0c1.7-.9,3.2-2,4.6-3.4,1.2-1.2,2.4-2.5,3.3-4h0c.4-.6.7-1.1.9-1.7.3-.6.5-1.2.7-1.8h0c.2-.7.4-1.4.5-2,.2-.7.3-1.4.4-2.1h0v-.3c0-.6,0-1.2,0-1.7V7.1h-20.2v-.5h20.7v38.6h0c0,.6,0,1.2,0,1.7,0,.1,0,.3,0,.4h0c0,.7-.2,1.4-.4,2.1-.1.7-.4,1.4-.6,2.1ZM49.7,66.5h0c-1.1-.2-2.2-.5-3.3-.9-1.1-.4-2.2-.8-3.2-1.2h0c-1-.5-2-.9-3-1.5-.9-.6-1.9-1.2-2.8-1.8h0c-.9-.7-1.8-1.5-2.7-2.3-.8-.8-1.6-1.7-2.3-2.6h0c-.7-1.1-1.4-2.2-1.9-3.4-.4-1.1-.8-2.3-1.1-3.6h0c-.1-.7-.2-1.3-.3-2,0-.7-.1-1.3-.1-2h0V6.6h20.7v.5h-20.2v38.1c0,.7,0,1.3.1,1.9,0,.7.2,1.3.3,2h0c.3,1.2.7,2.3,1.2,3.5.4,1.1,1,2.2,1.7,3.2h0c.7.9,1.5,1.8,2.3,2.6.8.8,1.7,1.5,2.6,2.3h0c.9.7,1.8,1.2,2.8,1.7.9.6,1.9,1,2.9,1.5h0c1,.5,2,.9,3.1,1.2,1,.4,2.1.7,3.2.9v.4Z"/>
        <path class="cls-1" d="M69.3,51.5h0c-.2.7-.4,1.2-.7,1.8-.3.7-.6,1.2-.9,1.8h0c-.9,1.5-2.1,2.8-3.4,4-1.5,1.4-3.1,2.5-4.7,3.5h0c-1.5.9-3.1,1.6-4.7,2.3-1.5.7-3.1,1.2-4.7,1.5h-.4c0,0-.1,0-.1,0-1.1-.2-2.2-.5-3.3-.9-1.1-.4-2.2-.8-3.2-1.2h0c-1-.5-2-.9-3-1.5-.9-.6-1.9-1.2-2.8-1.8h0c-.9-.7-1.8-1.5-2.7-2.3-.8-.8-1.6-1.7-2.3-2.6h0c-.7-1.1-1.4-2.2-1.9-3.4-.4-1.1-.8-2.3-1.1-3.6h0c-.1-.7-.2-1.3-.3-2,0-.7-.1-1.3-.1-2h0V6.6h41.4v38.6h0c0,.6,0,1.2,0,1.7,0,.1,0,.3,0,.4h0c0,.7-.2,1.4-.4,2.1-.1.7-.4,1.4-.6,2.1h0ZM68.9,51.3h0c.2-.7.4-1.4.5-2,.2-.7.3-1.4.4-2.1h0v-.3c0-.6,0-1.2,0-1.7V7.1H29.5v38.1c0,.7,0,1.3.1,1.9,0,.7.2,1.3.3,2h0c.3,1.2.7,2.3,1.2,3.5.4,1.1,1,2.2,1.7,3.2h0c.7.9,1.5,1.8,2.3,2.6.8.8,1.7,1.5,2.6,2.3h0c.9.7,1.8,1.2,2.8,1.7.9.6,1.9,1,2.9,1.5h0c1,.5,2,.9,3.1,1.2,1,.4,2.1.7,3.2.9h.4c1.5-.5,3.1-1,4.6-1.6,1.6-.7,3.1-1.4,4.6-2.3h0c1.7-.9,3.2-2,4.6-3.4,1.2-1.2,2.4-2.5,3.3-4h0c.4-.6.7-1.1.9-1.7.3-.6.5-1.2.7-1.8Z"/>
      </g>
      <g>
        <path class="cls-3" d="M73.6,52.3v-.4l.7.2.5-1.8h.4c0,.1-.6,2.3-.6,2.3l-1.1-.3h0ZM73.6,48.1v-.4h1.6c0,.1.1-1.4.1-1.4h.4c0,0-.2,2-.2,2l-2-.2h0ZM73.6,42.3v-2.9h2.3v.4h-2v2h2v.4h-2.3ZM73.6,37.4v-.4c.6,0,1-.2,1.4-.5.4-.4.5-.8.5-1.3s-.2-.9-.6-1.2c-.3-.4-.7-.5-1.3-.5v-.4c.4,0,.6,0,.9.1.2,0,.5.2.7.4.2.2.4.4.5.7.1.3.2.6.2.9,0,.6-.2,1.1-.7,1.5-.4.4-1,.7-1.7.7h0ZM73.6,31v-.4h2.3v.4h-2.3ZM73.6,29.6v-.4l1.7-1.1h-1.7c0,0,0-.4,0-.4h2.3v.5l-2.3,1.4h0ZM73.6,25.9v-.4c.6,0,1-.2,1.4-.6.4-.3.5-.7.5-1.2s-.1-.9-.5-1.3c-.4-.3-.8-.5-1.4-.5v-.4c.4,0,.6,0,.9.1.3.1.5.3.7.4.2.2.4.5.5.8.1.2.2.6.2.9,0,.7-.2,1.2-.7,1.6-.4.4-1,.7-1.7.7h0ZM73.6,19.5v-.4h2.3v.4h-2.3ZM73.6,17.6v-.7q0,0,.1.1c.2.1.4.4.4.7l1.7-1.1v.5l-2.1,1.3v-.4c0-.2,0-.4-.1-.5ZM73.6,16.9v.7c0,0,0-.1,0-.2-.2-.1-.4-.2-.7-.2s-.3,0-.4,0c-.1,0-.2.1-.3.2-.1,0-.1.2-.2.3v1.3h1.7v.4h-2.1v-1.8c0-.1.1-.3.2-.4.1-.1.3-.3.5-.4.2,0,.4-.1.7-.1s.5,0,.7.2h0ZM73.6,21.3v.4h0c-.5,0-.9.2-1.3.6-.3.3-.5.7-.5,1.2s0,.4,0,.6c0,.2.2.4.4.5.1.2.4.4.7.5.2.1.5.2.7.2h0v.4h0c-.3,0-.6,0-.9-.2-.3,0-.5-.3-.7-.5-.2-.2-.4-.4-.5-.7,0-.3-.1-.6-.1-.9s0-.6.2-.9c0-.2.2-.5.4-.7.2-.2.4-.4.7-.4.3-.1.6-.2.9-.2h0ZM73.6,27.7v.4h-2.2v-.4h2.2ZM73.6,29.2v.4l-1.6,1h1.6v.4h-2.2v-.5l2.2-1.3h0ZM73.6,33v.4h0c-.5,0-.9.1-1.3.5-.4.4-.5.8-.5,1.3s0,.4,0,.6c0,.1.2.4.3.5.2.2.4.4.7.4.3.1.5.2.8.2h0v.4h0c-.3,0-.6,0-.9-.1-.3-.1-.5-.3-.7-.5-.2-.2-.4-.5-.5-.7,0-.3-.1-.5-.1-.9s0-.6.1-.8c.1-.3.3-.5.5-.7.2-.2.4-.4.7-.5.3-.1.6-.1.9-.1h0ZM73.6,39.4v2.9h-2.1v-.4h2v-2h-2v-.4h2.1ZM73.6,47.6v.4l-2.4-.3v-.4c0,0,2.4.3,2.4.3h0ZM73.6,51.9v.4l-3.2-.8.6-2.3h.4c0,.1-.4,1.9-.4,1.9l1.5.4.5-1.8h.4c0,.1-.4,1.9-.4,1.9l.7.2h0ZM68.7,62.2v-.6l.9-.9.3.3-1.2,1.2h0ZM68.7,58v-.4l2.8,1.5-.2.4-2.6-1.5h0ZM68.7,57.2v-.4l3.6-.2-3.4-1.8.2-.4,3.8,2.1-.2.5h-4ZM68.7,56.8v.4h-.6c0,0,.6.4.6.4v.4l-1.2-.7.2-.4h.9ZM68.7,61.6l-.4.4-1.2-1.1,1.3-1.3-.4-.4-1.2,1.4-1.1-1.1,1.2-1.3-.3-.3-1.6,1.6,3.2,3.1.4-.4v-.6h0ZM56.9,70.1v-.4l.8-.4c.4-.3.8-.6.9-1,.1-.4,0-.9-.2-1.4-.1-.3-.4-.4-.5-.7-.2-.1-.4-.2-.7-.3,0,0-.1,0-.2,0v-.4h.3c.4,0,.7.2.9.4.3.1.5.4.7.7.2.4.3.7.4,1,0,.4,0,.7-.2,1,0,.2-.2.4-.4.5-.2.1-.4.4-.9.6l-.7.4h0ZM63.5,64.7l.9,1.3-.4.2-.9-1.3-2.8-1.4.4-.3,2.3,1.2-.4-2.6.4-.3.5,3.1ZM56.9,65.4v.4c0,0-.2,0-.3,0-.2,0-.4.1-.7.3l-.7.4,1.7,3.1h0v.4h-.1c0,.1-1.9-3.2-1.9-3.2v-.7l.8-.4c.4-.1.6-.3.9-.4h.4ZM54.8,70.9v-.5l.3.5h-.3ZM54.8,66.2v.7l-.3-.5h.3ZM54.8,70.4v.5h-.1c0,0-.7-1.2-.7-1.2h-1c0,.1,0-.2,0-.2h.8c0-.1-.8-1.7-.8-1.7v-.8l1.9,3.4ZM52.9,66.9v.8l-.3-.5-.5,2.3h.8c0,0,0,.3,0,.3h-.9c0,.1-.3,1.6-.3,1.6h-.4l1-4.6h.6c0,0,0,.1,0,.1h0ZM48.5,71.7v-.4c.3,0,.6-.1.8-.3.4-.2.6-.7.7-1.2,0-.2,0-.5,0-.8,0-.2-.1-.4-.3-.7-.1-.1-.3-.3-.4-.4-.1,0-.4-.1-.7-.2v-.4h0c.4,0,.7.2.9.3.2.1.4.3.5.4.2.3.4.6.4.9,0,.4,0,.7,0,1,0,.4-.2.7-.4,1-.2.2-.5.4-.8.6-.2.1-.4.1-.7.2h0ZM48.5,67.3v.4h-.8c0-.1-.7,3.4-.7,3.4h.9c.2.2.4.2.6.2v.4c-.2,0-.5,0-.9-.1l-1-.2.9-4.3,1.1.2h0ZM42.2,69.8v-.5l1.6-3.6,1.1.4c.2.1.4.2.6.3,0,.1.2.2.3.4,0,.2.1.4.1.7s0,.4,0,.7c-.1.3-.4.5-.7.7-.3.1-.6.1-.9,0l.3,2-.5-.2-.3-2.4h.4c.3.2.5.3.7.2.2,0,.4-.3.5-.5,0-.1,0-.3,0-.4s0-.2,0-.4c0,0-.1-.2-.2-.3,0,0-.3-.1-.6-.3l-.6-.3-1.6,3.6h-.2ZM42.2,65.5v-.4h.2c0,0-.2.4-.2.4ZM42.2,65.1v.4h0c0,0-1.6-.9-1.6-.9l-.8,1.3,1.5.9-.2.4-1.5-.9-.9,1.3,1.6.9-.2.4-1.5-.9v-1.1l1.8-2.9,1.7,1.1h0ZM42.2,69.3v.5h-.1c0,0,.1-.5.1-.5h0ZM38.7,63.7v-.4h0c0-.1.4.1.4.1l-.4.3ZM38.7,63.3v.4l-3.4,2.4-.3-.2,1.1-4.5.4.2-.9,3.9,3.1-2.2h0ZM38.7,66.9v1.1l-.5-.3.5-.8h0ZM30.6,60.2v-.5l1.1.9.7-2.2-1.8,1v-.4l1.9-1.1.4.4-1.5,4.4-.4-.3.4-1.4-.9-.8h0ZM30.6,55.3v-.4l.2.3h-.2ZM30.6,54.8v.4l-1,.6v-.5l1-.6h0ZM30.6,58.9v.4h-.2c0,.1.2.3.2.3v.5l-.6-.4-.4.2v-.4l1-.6ZM26.1,17.3v1.8h-.2v-2.3h2.2v2.3h-.4v-1.8h-1.5ZM29.5,55.4v.5l-2.1,1.4.8,1.3-.4.2-1-1.7,2.7-1.7h0ZM29.5,59.5v.4l-.8.5-.4-.3,1.2-.7h0ZM25.8,53v-.4l3.3-1v.4c.1,0-3.3,1-3.3,1h0ZM25.8,52.3l2.6-3-.2-.5-2.4.7v.4l2-.7-2,2.4v.6h0ZM25.8,47.7v-2.3l2.1-.2.2,2.3h-.4c0,0-.2-1.8-.2-1.8l-1.5.2.2,1.8h-.4ZM25.8,41.7v-.4h0c.5,0,.9-.1,1.3-.5.4-.4.5-.8.5-1.3s0-.4,0-.6c0-.1-.1-.4-.3-.5-.2-.2-.4-.4-.7-.5-.3,0-.5-.1-.8-.1h0v-.4h0c.3,0,.6,0,.9.1.3.1.5.3.7.5.2.2.4.4.5.7,0,.2.1.5.1.8s0,.6-.1.9c-.1.3-.3.5-.5.7-.2.2-.4.4-.7.5-.3,0-.6.1-.9.1h0ZM25.8,31.8v-.5c.3,0,.6,0,.9.2.2,0,.5.3.7.5.2.2.4.4.4.7.1.3.2.6.2.9,0,.4-.1.8-.4,1.2-.2.4-.5.7-.9.9v-.6c.2-.1.4-.4.6-.7.1-.2.2-.5.2-.8,0-.5-.2-.9-.6-1.2-.4-.4-.7-.5-1.2-.5h0ZM25.8,29.4v-.4h2.1v.4h-2.1ZM25.8,27v-.4h2.1v.4h-2.1ZM25.8,24.8v-.4h0c.3,0,.6,0,.8-.1.3-.1.4-.3.7-.4,0-.1.2-.4.2-.5,0-.1,0-.4,0-.8v-.7h-1.7v-.4h2.2v1.2c0,.4,0,.7,0,.9,0,.2-.2.4-.4.6-.2.3-.4.4-.7.6-.4.1-.7.2-1,.2h0ZM25.8,19.2h-.2v-1.8h-1.6v1.8h-.4v-2.3h2.3v2.3h0ZM25.8,21.3v.4h-1.8v.9c0,.6.2.9.5,1.3.3.3.7.4,1.3.4v.4c-.4,0-.7,0-1-.2-.4-.1-.6-.4-.8-.7-.1-.1-.2-.4-.3-.6,0-.2,0-.6,0-1v-1h2.2ZM25.8,26.6v.4h-.7c-.2,0-.4,0-.4,0-.1,0-.2,0-.3,0-.2,0-.3.1-.4.4,0,.1-.1.3-.1.5s.1.6.4.7c.2.1.6.2,1,.2h.6v.4h-.7c-.6,0-1-.1-1.2-.4-.3-.2-.4-.6-.4-1s.1-.9.4-1.1c.3-.2.7-.4,1.3-.4h.7ZM25.8,31.2v.5h0c-.5,0-.9.1-1.3.5-.4.3-.5.7-.5,1.2s0,.6.1.8c.1.3.4.5.6.7v.5c-.4-.2-.7-.4-.9-.8-.2-.4-.3-.7-.3-1.2s.2-1.2.7-1.6c.4-.4,1-.7,1.7-.7h0ZM25.8,37.3v.4c-.5,0-.9.1-1.3.5-.4.4-.6.8-.6,1.3s.2.9.6,1.2c.4.4.8.5,1.3.5v.4c-.3,0-.6,0-.9-.1-.2,0-.4-.2-.7-.4-.3-.2-.4-.4-.6-.7-.1-.3-.2-.6-.2-.9,0-.6.2-1.2.7-1.6.4-.4.9-.6,1.6-.6h0ZM25.8,45.4v2.3h0l-.2-1.8h-1.5c0,.1.1,2,.1,2h-.4l-.2-2.3,2.3-.2h0ZM25.8,49.5v.4l-1.6.5v-.4c-.1,0,1.6-.6,1.6-.6h0ZM25.8,51.7v.6l-.4.4h.4c0-.1,0,.3,0,.3l-.8.2v-.5c-.1,0,.8-1,.8-1Z"/>
        <path class="cls-3" d="M26.1,17.3v1.8h-.4v-1.8h-1.6v1.8h-.4v-2.3h4.4v2.3h-.4v-1.8h-1.5ZM27.6,21.7h-3.6v.9c0,.6.2.9.5,1.3.3.3.7.4,1.3.4s.6,0,.8-.1c.3-.1.4-.3.7-.4,0-.1.2-.4.2-.5,0-.1,0-.4,0-.8v-.7h0ZM28,21.3v1.2c0,.4,0,.7,0,.9,0,.2-.2.4-.4.6-.2.3-.4.4-.7.6-.4.1-.7.2-1,.2s-.7,0-1-.2c-.4-.1-.6-.4-.8-.7-.1-.1-.2-.4-.3-.6,0-.2,0-.6,0-1v-1h4.4ZM27.9,26.6v.4h-2.8c-.2,0-.4,0-.4,0-.1,0-.2,0-.3,0-.2,0-.3.1-.4.4,0,.1-.1.3-.1.5s.1.6.4.7c.2.1.6.2,1,.2h2.7v.4h-2.8c-.6,0-1-.1-1.2-.4-.3-.2-.4-.6-.4-1s.1-.9.4-1.1c.3-.2.7-.4,1.3-.4h2.8ZM26.9,35c.2-.1.4-.4.6-.7.1-.2.2-.5.2-.8,0-.5-.2-.9-.6-1.2-.4-.4-.8-.5-1.3-.5s-.9.1-1.3.5c-.4.3-.5.7-.5,1.2s0,.6.1.8c.1.3.4.5.6.7v.5c-.4-.2-.7-.4-.9-.8-.2-.4-.3-.7-.3-1.2s.2-1.2.7-1.6c.4-.4,1-.7,1.7-.7s.6,0,.9.2c.2,0,.5.3.7.5.2.2.4.4.4.7.1.3.2.6.2.9,0,.4-.1.8-.4,1.2-.2.4-.5.7-.9.9v-.6h0ZM25.8,37.7c-.5,0-.9.1-1.3.5-.4.4-.6.8-.6,1.3s.2.9.6,1.2c.4.4.8.5,1.3.5s.9-.1,1.3-.5c.4-.4.5-.8.5-1.3s0-.4,0-.6c0-.1-.1-.4-.3-.5-.2-.2-.4-.4-.7-.5-.3,0-.5-.1-.8-.1h0ZM25.8,37.3c.3,0,.6,0,.9.1.3.1.5.3.7.5.2.2.4.4.5.7,0,.2.1.5.1.8s0,.6-.1.9c-.1.3-.3.5-.5.7-.2.2-.4.4-.7.5-.3,0-.6.1-.9.1s-.6,0-.9-.1c-.2,0-.4-.2-.7-.4-.3-.2-.4-.4-.6-.7-.1-.3-.2-.6-.2-.9,0-.6.2-1.2.7-1.6.4-.4.9-.6,1.6-.6h0ZM26.1,45.9l.2,1.8h-.4l-.2-1.8h-1.5c0,.1.1,2,.1,2h-.4l-.2-2.3,4.4-.4.2,2.3h-.4c0,0-.2-1.8-.2-1.8l-1.5.2h0ZM25.4,52.7l3.7-1.2v.4c.1,0-4.1,1.2-4.1,1.2v-.5c-.1,0,2.8-3.4,2.8-3.4l-3.6,1.2v-.4c-.1,0,4-1.3,4-1.3l.2.5-3.1,3.4h0ZM27.9,58.8l-1-1.7,3.7-2.3.2.4-3.4,2.1.8,1.3-.4.2h0ZM28.7,60.5l-.4-.3,4.1-2.3.4.4-1.5,4.4-.4-.3.4-1.4-1.5-1.2-1.2.7h0ZM31.7,60.5l.7-2.2-2,1.2,1.3,1h0ZM36.1,61.4l.4.2-.9,3.9,3.2-2.3.4.3-3.8,2.7-.3-.2,1.1-4.5h0ZM39.8,65.9l1.5.9-.2.4-1.5-.9-.9,1.3,1.6.9-.2.4-2-1.2,2.3-3.7,2,1.2-.2.4-1.6-.9-.8,1.3h0ZM44,66.2l-1.6,3.6h-.4c0-.1,1.7-4.2,1.7-4.2l1.1.4c.2.1.4.2.6.3,0,.1.2.2.3.4,0,.2.1.4.1.7s0,.4,0,.7c-.1.3-.4.5-.7.7-.3.1-.6.1-.9,0l.3,2-.5-.2-.3-2.4h.4c.3.2.5.3.7.2.2,0,.4-.3.5-.5,0-.1,0-.3,0-.4s0-.2,0-.4c0,0-.1-.2-.2-.3,0,0-.3-.1-.6-.3l-.6-.3h0ZM47.7,67.6l-.7,3.5h.9c.6.3,1,.2,1.4,0,.4-.2.6-.7.7-1.2,0-.2,0-.5,0-.8,0-.2-.1-.4-.3-.7-.1-.1-.3-.3-.4-.4-.1,0-.4-.1-.7-.2h-.8ZM47.4,67.1l1.2.2c.4,0,.7.2.9.3.2.1.4.3.5.4.2.3.4.6.4.9,0,.4,0,.7,0,1,0,.4-.2.7-.4,1-.2.2-.5.4-.8.6-.2.1-.4.1-.7.2-.2,0-.6,0-1-.1l-1-.2.9-4.3h0ZM51.7,71.4h-.4l1-4.6h.6c0,0,2.3,4.1,2.3,4.1h-.4c0,0-.7-1.2-.7-1.2l-2,.3-.3,1.5h0ZM53.7,69.3l-1.1-2-.5,2.3,1.6-.2h0ZM55.1,66.5l1.7,3.1.8-.4c.4-.3.8-.6.9-1,.1-.4,0-.9-.2-1.4-.1-.3-.4-.4-.5-.7-.2-.1-.4-.2-.7-.3-.1,0-.4,0-.5,0-.2,0-.4.1-.7.3l-.7.4h0ZM54.5,66.4l1.1-.6c.4-.1.6-.3.9-.4.2,0,.4,0,.7,0,.4,0,.7.2.9.4.3.1.5.4.7.7.2.4.3.7.4,1,0,.4,0,.7-.2,1,0,.2-.2.4-.4.5-.2.1-.4.4-.9.6l-.9.5-2.2-3.9h0ZM63.5,64.7l.9,1.3-.4.2-.9-1.3-2.8-1.4.4-.3,2.3,1.2-.4-2.6.4-.3.5,3.1h0ZM66.9,60.7l1.2-1.4.4.4-1.3,1.3,1.2,1.1,1.2-1.4.3.3-1.5,1.7-3.2-3.1,1.6-1.6.3.3-1.2,1.3,1.1,1.1h0ZM72.3,56.6l-3.4-1.8.2-.4,3.8,2.1-.2.5-4.6.2,3.4,1.8-.2.4-3.8-2.1.2-.4,4.5-.3h0ZM72.4,51.6l.5-1.8h.4c0,.1-.4,1.9-.4,1.9l1.5.4.5-1.8h.4c0,.1-.6,2.3-.6,2.3l-4.3-1.1.6-2.3h.4c0,.1-.4,1.9-.4,1.9l1.5.4h0ZM75.8,46.3l-.2,2-4.4-.5v-.4c0,0,4,.4,4,.4v-1.5c.1,0,.6,0,.6,0h0ZM75.9,41.9v.4h-4.4v-.4h2v-2h-2v-.4h4.4v.4h-2v2h2ZM73.6,37c.5,0,1-.1,1.4-.5.4-.4.5-.8.5-1.3s-.2-.9-.6-1.2c-.4-.4-.8-.5-1.3-.5s-.9.1-1.3.5c-.4.4-.5.8-.5,1.3s0,.4,0,.6c0,.1.2.4.3.5.2.2.4.4.7.4.3.1.5.2.8.2h0ZM73.6,37.4c-.3,0-.6,0-.9-.1-.3-.1-.5-.3-.7-.5-.2-.2-.4-.5-.5-.7,0-.3-.1-.5-.1-.9s0-.6.1-.8c.1-.3.3-.5.5-.7.2-.2.4-.4.7-.5.3-.1.6-.1.9-.1s.6,0,.9.1c.2,0,.5.2.7.4.2.2.4.4.5.7.1.3.2.6.2.9,0,.6-.2,1.1-.7,1.5-.5.4-1,.7-1.7.7h0ZM75.3,28.1h-3.9c0,0,0-.4,0-.4h4.4v.5l-3.9,2.4h3.9v.4h-4.4v-.5l3.9-2.4h0ZM73.6,25.4c.6,0,1-.2,1.4-.6.4-.3.5-.7.5-1.2s-.1-.9-.5-1.3c-.4-.3-.8-.5-1.4-.5s-.9.2-1.3.6c-.3.3-.5.7-.5,1.2s0,.4,0,.6c0,.2.2.4.4.5.1.2.4.4.7.5.2.1.5.2.7.2h0ZM73.6,25.9c-.3,0-.6,0-.9-.2-.3,0-.5-.3-.7-.5-.2-.2-.4-.4-.5-.7,0-.3-.1-.6-.1-.9s0-.6.2-.9c0-.2.2-.5.4-.7.2-.2.4-.4.7-.4.3-.1.6-.2.9-.2s.6,0,.9.1c.3.1.5.3.7.4.2.2.4.5.5.8.1.2.2.6.2.9,0,.7-.2,1.2-.7,1.6-.4.4-1,.7-1.7.7h0ZM71.9,19.1h3.9v.4h-4.4v-1.8c0-.1.1-.3.2-.4.1-.1.3-.3.5-.4.2,0,.4-.1.7-.1s.6.1.9.4c.2.1.4.4.4.7l1.7-1.1v.5l-2.1,1.3v-.4c0-.3,0-.5-.2-.7-.2-.1-.4-.2-.7-.2s-.3,0-.4,0c-.1,0-.2.1-.3.2-.1,0-.1.2-.2.3v1.3Z"/>
      </g>
      <g>
        <path class="cls-4" d="M74.6,5v-.4c.1,0,.2,0,.3-.1,0,0,0-.2,0-.4v-1.2c0-.1,0-.3,0-.4,0,0-.1-.1-.3-.1v-.3c.3,0,.4,0,.6.2,0,.1.1.4.1.7v1.2c0,.3,0,.5-.2.7,0,.1-.2.2-.5.2ZM74.6,2v.3c0,0-.1,0-.2.1,0,0,0,.3,0,.4v1.1c0,.3,0,.4,0,.5,0,0,.1.1.2.1v.4c-.2,0-.4,0-.5-.2,0-.1-.1-.4-.1-.8v-1.1c0-.3,0-.5.2-.7,0-.1.2-.2.4-.2h0ZM73,3.6v-.4c.1,0,.2,0,.3,0,0,0,0-.2,0-.4h0c0-.1,0-.2,0-.3,0,0-.1,0-.3,0v-.4h0c.2,0,.4,0,.4.2.1,0,.1.3.1.5h0c0,.2,0,.4-.1.6,0,0-.1,0-.3.1.1,0,.2,0,.3.1,0,0,0,.2,0,.4s0,.4,0,.4h0v.3h0c0,.1-.1.1-.1.1h-.1c0,0,0-.1,0-.2h0v-.6c0-.1,0-.3,0-.4,0,0-.1-.1-.2-.1ZM73,2v.4h-.3v.9h.2s0,0,0,0v.4h-.3v1.3h-.4v-2.9h.7ZM71.2,4.3v-.3h.3l-.3-1.6h0v-.4h.2l.5,2.9h-.3v-.7h-.4ZM71.2,2v.4l-.2,1.6h.2v.3h-.3v.7h-.4l.5-2.9h.2ZM66.5,3.6v-.4c.1,0,.2,0,.2,0,0,0,.1-.2.1-.4h0c0-.1,0-.2-.1-.3,0,0,0,0-.2,0v-.4h0c.2,0,.4,0,.4.2,0,0,.1.3.1.5h0c0,.2,0,.4-.1.6,0,0-.2,0-.3.1.1,0,.2,0,.3.1,0,0,0,.2,0,.4v.4h0c0,.1,0,.2,0,.3h0c0,.1-.1.1-.1.1h-.1c0,0,0-.1,0-.2h0v-.6c0-.1,0-.3-.1-.4,0,0,0-.1-.1-.1h0ZM67.5,4.9v-2.9h1v.4h-.7v.9h.7v.2h0c0,.1-.7.1-.7.1v1h.8v.3h-1.1ZM69.4,2.4h-.6v-.2h0c0-.1,1.5-.1,1.5-.1h0v.4h-.6v2.5h-.3v-2.5ZM66.5,2v.4h-.4v.9h.3s0,0,0,0v.4h-.4v1.3h-.3v-2.9h.7ZM61.5,5v-.4c.1,0,.2,0,.3-.1,0,0,0-.2,0-.5v-1c0-.3,0-.4,0-.5,0,0-.1-.1-.3-.1v-.3c.2,0,.4,0,.5.2.1,0,.1.3.1.6v1.1c0,.3,0,.5-.1.7h.4c0,0,0,.3,0,.3h-.9ZM63.9,4.2c0,.3,0,.4-.1.6-.1.1-.3.2-.5.2s-.4,0-.4-.2c-.1-.1-.2-.3-.2-.6v-2.2h.4v2.1c0,.1,0,.3,0,.4,0,.1.1.1.2.1.1,0,.2,0,.3-.1,0,0,0-.2,0-.4v-2.1h.3v2.2h0ZM64.4,4.9v-2.9h1.1v.4h-.7v.9h.7v.2h0c0,.1-.7.1-.7.1v1h.7v.3h-1.1ZM61.5,2v.3c0,0-.2,0-.2.1,0,.1-.1.3-.1.5v1c0,.3,0,.4,0,.5,0,.1.1.1.3.1v.4h0c-.2,0-.4,0-.4-.2,0-.1-.1-.4-.1-.8v-1.1c0-.3,0-.5.1-.7.1-.1.3-.2.5-.2h0ZM57.6,4.9v-.3c.1,0,.2,0,.3-.1,0,0,0-.2,0-.4v-1.2c0-.2,0-.4,0-.4,0,0-.1,0-.3,0v-.4c.2,0,.4,0,.5.2.1.1.2.4.2.7v1.2c0,.3,0,.5-.1.7-.1.1-.3.2-.5.2h0ZM58.7,4.9v-2.9h1.1v.4h-.7v.9h.7v.2h0c0,.1-.7.1-.7.1v1h.7v.3h-1.1ZM57.6,2v.4h-.3v2.3h.3v.3h-.7v-2.9h.7ZM55.1,4.3v-.3h.2l-.2-1.6h0v-.4h.2l.5,2.9h-.4v-.7h-.4ZM55.1,2v.4l-.3,1.6h.3v.3h-.4v.7h-.4l.5-2.9h.2ZM51,5v-.4c.1,0,.2,0,.3-.1,0,0,0-.2,0-.4v-1.2c0-.1,0-.3,0-.4,0,0-.1-.1-.3-.1v-.3c.2,0,.4,0,.5.2.1.1.1.4.1.7v1.2c0,.3,0,.5-.1.7,0,.1-.3.2-.5.2h0ZM52.4,4.9h-.3v-2.9h.5l.4,2.3h0l.4-2.3h.5v2.9h-.3v-2.5h0l-.5,2.5h-.3l-.5-2.5v2.5ZM51,2v.3c-.1,0-.2,0-.2.1,0,0-.1.3-.1.4v1.1c0,.3,0,.4,0,.5,0,0,.1.1.3.1v.4c-.2,0-.4,0-.5-.2,0-.1-.1-.4-.1-.8v-1.1c0-.3,0-.5.1-.7.1-.1.3-.2.5-.2h0ZM47.5,5v-.4c.1,0,.2,0,.3-.1,0,0,0-.2,0-.4v-1.2c0-.1,0-.3,0-.4,0,0-.1-.1-.3-.1v-.3c.3,0,.4,0,.5.2.1.1.1.4.1.7v1.2c0,.3,0,.5-.1.7,0,.1-.3.2-.5.2h0ZM48.8,4.9h-.3v-2.9h.5l.6,2.5v-2.5h.3v2.9h-.5l-.6-2.5v2.5ZM47.5,2v.3c0,0-.2,0-.2.1,0,0,0,.3,0,.4v1.1c0,.3,0,.4,0,.5,0,0,0,.1.2.1v.4c-.2,0-.4,0-.5-.2,0-.1-.1-.4-.1-.8v-1.1c0-.3,0-.5.1-.7.1-.1.3-.2.5-.2h0ZM42.4,4.3v-.3h.2l-.2-1.6h0v-.4h.2l.5,2.9h-.4v-.7h-.4ZM44.8,4.2c0,.3,0,.4-.1.6-.1.1-.3.2-.5.2s-.4,0-.5-.2c0-.1-.1-.3-.1-.6v-2.2h.3v2.1c0,.1,0,.3,0,.4,0,.1.1.1.3.1s.2,0,.2-.1c0,0,0-.2,0-.4v-2.1h.4v2.2h0ZM45.6,2.4h-.6v-.2h0c0-.1,1.5-.1,1.5-.1h0v.4h-.6v2.5h-.3v-2.5ZM42.4,2v.4l-.3,1.6h.3v.3h-.4v.7h-.4l.5-2.9h.2ZM39.9,4.9v-.3c0,0,.2,0,.2-.1,0,0,0-.2,0-.4v-1.2c0-.2,0-.4,0-.4,0,0-.1,0-.2,0v-.4c.2,0,.4,0,.4.2.1.1.2.4.2.7v1.2c0,.3,0,.5-.1.7,0,.1-.2.2-.4.2h0ZM39.9,2v.4h-.4v2.3h.4v.3h-.7v-2.9h.7ZM38.1,4.3v-.3h.3l-.3-1.6h0v-.4h.2l.6,2.9h-.4v-.7h-.4ZM38.1,2v.4l-.2,1.6h.2v.3h-.3v.7h-.4l.6-2.9h.1ZM36.4,4.9v-.3c0,0,.2,0,.2-.1,0,0,0-.2,0-.4v-1.2c0-.2,0-.4,0-.4,0,0-.1,0-.2,0v-.4c.2,0,.4,0,.4.2.1.1.2.4.2.7v1.2c0,.3,0,.5-.1.7,0,.1-.2.2-.4.2h0ZM36.4,2v.4h-.4v2.3h.4v.3h-.7v-2.9h.7ZM32.3,3.6v-.4c0,0,.1,0,.2,0,0,0,0-.2,0-.4h0c0-.1,0-.2,0-.3,0,0-.1,0-.2,0v-.4h0c.1,0,.3,0,.4.2,0,0,.1.3.1.5h0c0,.2,0,.4-.2.6,0,0-.1,0-.3.1.1,0,.3,0,.3.1,0,0,.1.2.1.4v.4h0v.3q0,0,0,.1h-.4v-.2h0c0-.3,0-.4,0-.6s0-.3,0-.4c0,0,0-.1-.1-.1h0ZM34.2,2.9h0v-.4c0,0-.1-.1-.2-.1-.1,0-.2,0-.3,0,0,0,0,.2,0,.4s0,.2,0,.3c0,0,.1.1.3.2.2.1.4.3.5.4,0,0,0,.2,0,.4s0,.5-.1.7c-.1.1-.3.2-.5.2s-.4,0-.5-.2c0-.1-.1-.4-.1-.7h0c0-.1.3-.1.3-.1h0c0,.3,0,.4,0,.5,0,.1.1.1.3.1s.2,0,.3,0c0,0,0-.2,0-.4s0-.2,0-.3c0,0-.1-.2-.4-.3-.2-.1-.4-.3-.4-.4,0,0,0-.2,0-.4s0-.4.1-.6c0,0,.3-.1.5-.1s.4,0,.4.1c0,.1.1.3.1.6h0c0,.1-.4.1-.4.1h0ZM34.9,2h.3v2.9h-.3v-2.9ZM25.6,4.2c0,.3,0,.4-.1.6,0,.1-.3.2-.5.2s-.4,0-.4-.2c-.1-.1-.2-.3-.2-.6v-2.2h.4v2.1c0,.1,0,.3,0,.4,0,.1.1.1.2.1.1,0,.2,0,.3-.1,0,0,0-.2,0-.4v-2.1h.3v2.2h0ZM32.3,2v.4h-.4v.9h.4c0,0,0,.3,0,.3h-.4v1.3h-.3v-2.9h.7ZM26.3,4.9h-.3v-2.9h.5l.6,2.5v-2.5h.3v2.9h-.5l-.6-2.5v2.5h0ZM27.9,2h.3v2.9h-.3v-2.9h0ZM28.5,2h.3l.4,2.5.4-2.5h.4l-.5,2.9h-.4l-.4-2.9h0ZM30.2,4.9v-2.9h1v.4h-.7v.9h.7v.2h0c0,.1-.7.1-.7.1v1h.8v.3h-1.1Z"/>
        <path class="cls-4" d="M25.6,4.2c0,.3,0,.4-.1.6,0,.1-.3.2-.5.2s-.4,0-.4-.2c-.1-.1-.2-.3-.2-.6v-2.2h.4v2.1c0,.1,0,.3,0,.4,0,.1.1.1.2.1.1,0,.2,0,.3-.1,0,0,0-.2,0-.4v-2.1h.3v2.2h0ZM26.3,4.9h-.3v-2.9h.5l.6,2.5v-2.5h.3v2.9h-.5l-.6-2.5v2.5h0ZM27.9,2h.3v2.9h-.3v-2.9h0ZM28.5,2h.3l.4,2.5.4-2.5h.4l-.5,2.9h-.4l-.4-2.9h0ZM30.2,4.9v-2.9h1v.4h-.7v.9h.7v.2h0c0,.1-.7.1-.7.1v1h.8v.3h-1.1ZM31.7,2h.7c.1,0,.3,0,.4.2,0,0,.1.3.1.5h0c0,.2,0,.4-.2.6,0,0-.1,0-.3.1.1,0,.3,0,.3.1,0,0,.1.2.1.4v.4h0v.3q0,0,0,.1h-.4v-.2h0c0-.3,0-.4,0-.6s0-.3,0-.4c0,0-.1-.1-.3-.1h-.2v1.3h-.3v-2.9h0ZM32,3.3h.3c.1,0,.2,0,.3-.1,0,0,0-.2,0-.4h0c0-.1,0-.2,0-.3,0,0-.1,0-.3,0h-.3v.9h0ZM34.2,2.9h0v-.4c0,0-.1-.1-.2-.1-.1,0-.2,0-.3,0,0,0,0,.2,0,.4s0,.2,0,.3c0,0,.1.1.3.2.2.1.4.3.5.4,0,0,0,.2,0,.4s0,.5-.1.7c-.1.1-.3.2-.5.2s-.4,0-.5-.2c0-.1-.1-.4-.1-.7h0c0-.1.3-.1.3-.1h0c0,.3,0,.4,0,.5,0,.1.1.1.3.1s.2,0,.3,0c0,0,0-.2,0-.4s0-.2,0-.3c0,0-.1-.2-.4-.3-.2-.1-.4-.3-.4-.4,0,0,0-.2,0-.4s0-.4.1-.6c0,0,.3-.1.5-.1s.4,0,.4.1c0,.1.1.3.1.6h0c0,.1-.4.1-.4.1h0ZM34.9,2h.3v2.9h-.3v-2.9h0ZM35.7,2h.6c.3,0,.5,0,.6.2.1.1.2.4.2.7v1.2c0,.3,0,.5-.1.7,0,.1-.2.2-.4.2h-.8v-2.9h0ZM36,4.7h.3c.1,0,.3,0,.3-.1,0,0,0-.2,0-.4v-1.2c0-.2,0-.4,0-.4,0,0-.1,0-.3,0h-.3v2.3h0ZM37.9,2h.4l.6,2.9h-.4v-.7h-.7v.7h-.4l.6-2.9h0ZM37.9,4h.5l-.3-1.6h0l-.2,1.6h0ZM39.2,2h.5c.3,0,.5,0,.6.2.1.1.2.4.2.7v1.2c0,.3,0,.5-.1.7,0,.1-.2.2-.4.2h-.7v-2.9h0ZM39.5,4.7h.3c.1,0,.3,0,.3-.1,0,0,0-.2,0-.4v-1.2c0-.2,0-.4,0-.4,0,0-.1,0-.3,0h-.3v2.3h0ZM42.1,2h.4l.5,2.9h-.4v-.7h-.7v.7h-.4l.5-2.9h0ZM42.1,4h.5l-.2-1.6h0l-.3,1.6h0ZM44.8,4.2c0,.3,0,.4-.1.6-.1.1-.3.2-.5.2s-.4,0-.5-.2c0-.1-.1-.3-.1-.6v-2.2h.3v2.1c0,.1,0,.3,0,.4,0,.1.1.1.3.1s.2,0,.2-.1c0,0,0-.2,0-.4v-2.1h.4v2.2h0ZM45.6,2.4h-.6v-.2h0c0-.1,1.5-.1,1.5-.1h0v.4h-.6v2.5h-.3v-2.5h0ZM47.5,5c-.2,0-.4,0-.5-.2,0-.1-.1-.4-.1-.8v-1.1c0-.3,0-.5.1-.7.1-.1.3-.2.5-.2s.4,0,.5.2c.1.1.1.4.1.7v1.2c0,.3,0,.5-.1.7,0,.1-.3.2-.5.2h0ZM47.5,4.7c.1,0,.2,0,.3-.1,0,0,0-.2,0-.4v-1.2c0-.1,0-.3,0-.4,0,0-.1-.1-.3-.1s-.2,0-.2.1c0,0,0,.3,0,.4v1.1c0,.3,0,.4,0,.5,0,0,0,.1.2.1h0ZM48.8,4.9h-.3v-2.9h.5l.6,2.5v-2.5h.3v2.9h-.5l-.6-2.5v2.5h0ZM51,5c-.2,0-.4,0-.5-.2,0-.1-.1-.4-.1-.8v-1.1c0-.3,0-.5.1-.7.1-.1.3-.2.5-.2s.4,0,.5.2c.1.1.1.4.1.7v1.2c0,.3,0,.5-.1.7,0,.1-.3.2-.5.2h0ZM51,4.7c.1,0,.2,0,.3-.1,0,0,0-.2,0-.4v-1.2c0-.1,0-.3,0-.4,0,0-.1-.1-.3-.1s-.2,0-.2.1c0,0-.1.3-.1.4v1.1c0,.3,0,.4,0,.5,0,0,.1.1.3.1h0ZM52.4,4.9h-.3v-2.9h.5l.4,2.3h0l.4-2.3h.5v2.9h-.3v-2.5h0l-.5,2.5h-.3l-.5-2.5v2.5h0ZM54.9,2h.4l.5,2.9h-.4v-.7h-.7v.7h-.4l.5-2.9h0ZM54.8,4h.5l-.2-1.6h0l-.3,1.6h0ZM56.9,2h.6c.3,0,.4,0,.6.2.1.1.2.4.2.7v1.2c0,.3,0,.5-.1.7-.1.1-.3.2-.5.2h-.7v-2.9h0ZM57.3,4.7h.3c.1,0,.2,0,.3-.1,0,0,0-.2,0-.4v-1.2c0-.2,0-.4,0-.4,0,0-.1,0-.3,0h-.3v2.3h0ZM58.7,4.9v-2.9h1.1v.4h-.7v.9h.7v.2h0c0,.1-.7.1-.7.1v1h.7v.3h-1.1ZM62.4,4.9h-.9c-.2,0-.4,0-.4-.1,0-.1-.1-.4-.1-.8v-1.1c0-.3,0-.5.1-.7.1-.1.3-.2.5-.2s.4,0,.5.2c.1,0,.1.3.1.6v1.1c0,.3,0,.5-.1.7h.4c0,0,0,.3,0,.3h0ZM61.5,2.3c0,0-.2,0-.2.1,0,.1-.1.3-.1.5v1c0,.3,0,.4,0,.5,0,.1.1.1.3.1s.2,0,.3-.1c0,0,0-.2,0-.5v-1c0-.3,0-.4,0-.5,0,0-.1-.1-.3-.1h0ZM63.9,4.2c0,.3,0,.4-.1.6-.1.1-.3.2-.5.2s-.4,0-.4-.2c-.1-.1-.2-.3-.2-.6v-2.2h.4v2.1c0,.1,0,.3,0,.4,0,.1.1.1.2.1.1,0,.2,0,.3-.1,0,0,0-.2,0-.4v-2.1h.3v2.2h0ZM64.4,4.9v-2.9h1.1v.4h-.7v.9h.7v.2h0c0,.1-.7.1-.7.1v1h.7v.3h-1.1ZM65.8,2h.7c.2,0,.4,0,.4.2,0,0,.1.3.1.5h0c0,.2,0,.4-.1.6,0,0-.2,0-.3.1.1,0,.2,0,.3.1,0,0,0,.2,0,.4v.4h0c0,.1,0,.2,0,.3h0c0,.1-.1.1-.1.1h-.1c0,0,0-.1,0-.2h0v-.6c0-.1,0-.3-.1-.4,0,0,0-.1-.2-.1h-.3v1.3h-.3v-2.9h0ZM66.1,3.3h.3c.1,0,.3,0,.3-.1,0,0,.1-.2.1-.4h0c0-.1,0-.2-.1-.3,0,0-.1,0-.3,0h-.3v.9h0ZM67.5,4.9v-2.9h1v.4h-.7v.9h.7v.2h0c0,.1-.7.1-.7.1v1h.8v.3h-1.1ZM69.4,2.4h-.6v-.2h0c0-.1,1.5-.1,1.5-.1h0v.4h-.6v2.5h-.3v-2.5h0ZM71,2h.4l.5,2.9h-.3v-.7h-.7v.7h-.4l.5-2.9h0ZM71,4h.5l-.3-1.6h0l-.2,1.6h0ZM72.3,2h.7c.2,0,.4,0,.4.2.1,0,.1.3.1.5h0c0,.2,0,.4-.1.6,0,0-.1,0-.3.1.1,0,.2,0,.3.1,0,0,0,.2,0,.4s0,.4,0,.4h0v.3h0c0,.1-.1.1-.1.1h-.1c0,0,0-.1,0-.2h0v-.6c0-.1,0-.3,0-.4,0,0-.1-.1-.3-.1h-.2v1.3h-.4v-2.9h0ZM72.7,3.3h.2c.1,0,.3,0,.4-.1,0,0,0-.2,0-.4h0c0-.1,0-.2,0-.3,0,0-.2,0-.4,0h-.2v.9h0ZM74.6,5c-.2,0-.4,0-.5-.2,0-.1-.1-.4-.1-.8v-1.1c0-.3,0-.5.2-.7,0-.1.2-.2.4-.2s.4,0,.6.2c0,.1.1.4.1.7v1.2c0,.3,0,.5-.2.7,0,.1-.2.2-.5.2h0ZM74.6,4.7c.1,0,.2,0,.3-.1,0,0,0-.2,0-.4v-1.2c0-.1,0-.3,0-.4,0,0-.1-.1-.3-.1s-.1,0-.2.1c0,0,0,.3,0,.4v1.1c0,.3,0,.4,0,.5,0,0,.1.1.2.1Z"/>
      </g>
      <polygon class="cls-4" points="62.3 16 63.9 13.5 70.3 7.1 69.9 6.7 63.3 13.3 62.3 14 61.2 14.6 60.6 12.1 59.6 8.4 58.9 11 58 14.6 55 12.7 56.9 16 50 17.7 56.7 19.2 55.4 21.3 29.2 47.6 29.5 47.8 55.7 21.7 56.8 21 57.9 20.2 59.6 27.1 60.6 23.3 61.3 20.3 64.4 22.2 62.5 19.2 69 17.7 62.3 16"/>
      <g>
        <path class="cls-2" d="M60.4,47.7c0,0,0,0,0,.1,0,0,0,0,0-.1Z"/>
        <path class="cls-2" d="M60.9,48.3h0s0,0,0,0c0,0,0,0,0,0Z"/>
        <path class="cls-2" d="M61.2,49.7c0,0,0,0-.1,0,0,0,0,0,.1,0Z"/>
        <path class="cls-2" d="M55.7,49.7c0,0,0-.1,0-.1,0,0,0,0,0,.1Z"/>
        <path class="cls-2" d="M64.4,50.6c.4-1,.6-2.1.6-3.2s-.3-2.5-.8-3.7c.4-.4.7-.9.8-1.4.1-.4.2-.7.2-1,.4-.3.7-.7.7-1.2s-.3-.9-.7-1.2c0,0,0,0,0-.1-.1-.3-.4-.5-.7-.7-.3-.1-.6-.3-1-.3-.2,0-.4,0-.7,0-.3,0-.7,0-1.1.2-.7.2-1.4.5-2.3.9-.5-.2-1.1-.4-1.7-.6-.2,0-.5,0-.7-.1-.3,0-.6,0-.9,0,0,0-.2,0-.3,0h-.1c-1.2,0-2.4.2-3.5.7-.5-.1-1.1-.4-1.6-.5,0-.7-.7-1.4-1.4-1.4h-.1c0,0-.2,0-.2,0,0,0-.1,0-.1,0-.1,0-.2.1-.3.2,0,0,0,0,0,0-.3.2-.4.5-.5.8-.7.1-1.6.9-1.8,1.6s0,1.5.2,2.3c.2.6.5,1.1.9,1.6-.6,1.2-.9,2.5-.9,3.9s.2,2.5.7,3.6c-.4.7-.7,1.5-.9,2.1-.7.1-1.2.7-1.2,1.4s.5,1.2,1.2,1.4c0,.1.1.3.2.4.3.4,1.4,1.4,3.8.7s1.2-.6,1.6-1c.3.1.6.2,1,.3.3,0,.6.2.9.2,0,0,0,0,0,0,.2,0,.4,0,.6.1.4,0,.9,0,1.4,0h.1c.7,0,1.3,0,1.9-.2.4,0,.8-.2,1.1-.3.3-.1.7-.2,1-.4.3.2.6.5.9.7h0c0,.8.7,1.5,1.4,1.5s.6-.1.8-.3c.2-.1.3-.3.5-.5,0,0,.1,0,.2,0h.5c.5-.1.9-.4,1.2-.9.3-.4.4-.9.4-1.6s0-.9-.1-1.4c-.3-.8-.7-1.7-1.2-2.5ZM64.3,38.5c0,0,.1.1.2.2-.7,0-1.4.6-1.4,1.4s.7,1.4,1.4,1.4.1,0,.2,0c0,.3-.1.5-.2.7,0,.4-.3.7-.5,1-.3-.6-.6-1.1-1-1.5-.2-.2-.4-.5-.6-.7,0,0,0,0-.1,0-.7-.7-1.4-1.2-2.3-1.7.3-.1.5-.2.8-.3.6-.2,1.2-.4,1.6-.5.2,0,.3,0,.5,0,.2,0,.4,0,.6,0,.3,0,.6,0,.8.2ZM59.5,39.5c.9.4,1.7,1,2.4,1.7.6.6,1.1,1.3,1.5,2,0,0,0,0,0,0,0,.2.2.3.2.5,0,.1.1.2.2.4,0,.1,0,.2.1.3,0,.2.1.3.2.5,0,.1,0,.2,0,.3,0,.2,0,.3.1.5,0,.1,0,.3,0,.4,0,.1,0,.3,0,.4,0,.3,0,.6,0,.9,0,.9-.1,1.7-.4,2.6-.5-.9-1.1-1.8-1.7-2.7-.7-.9-1.5-1.9-2.3-2.7-.5-.6-1-1.1-1.5-1.6-.2-.2-.4-.4-.6-.6,0,0-.1-.1-.2-.2,0,0-.1-.1-.2-.2-.3-.3-.6-.6-.9-.8.3-.2.6-.4.9-.6,0,0,.2-.1.3-.2.1-.1.3-.2.5-.3.4-.2.8-.5,1.1-.6h0q0,0,.1,0ZM63.4,51.7s0,0,0,.1c-.4.7-.9,1.3-1.5,1.9,0,0-.1.1-.2.2-.2.2-.5.4-.7.6-.1,0-.2.2-.4.3-.3.2-.5.3-.8.5-.1,0-.2.1-.3.2-.3.1-.6.3-1,.4,0,0-.2,0-.2,0-.4.1-.9.2-1.4.3h0v-1c0,0,.1,0,.1-.1.1,0,0,0,0,0,0,0,0,0,0-.2,0,.2-.1.1.1,0,0-.1,0-.8,0-.9h0c0-.1,0-.2,0-.2,0,0,0,0,.1,0h0c0,0,0,0,0-.2h0c0,0,0,0,0,0h0c0,0,0,0,0-.1h0c0,0,.1,0,.1,0h0c0,0,0,0,0-.2h0c0,0,0,0,.1,0h0v-.2h0c0,0,0,0,.1,0h0c0,0,0,0,0-.2h0c0,0,0,0,.1,0,0,0,0-.1,0-.1h0c0,0,0-.1,0-.1,0,0,0,0,0-.1.1,0,0,0,.1,0v-.2h0c0,0,0,0,0-.1h0v-.4h0c0-.1,0-.2,0-.2,0,0,0,0,.1,0,0-.1.4,0,.4-.2,0,0,0,0,0,0,0,0,0,0,0,0,0,0,0,0,0,0,0,0,.1,0,.2,0h0c0,0,0-.1,0-.1,0-.1.1-.1.1-.1h0c0-.1.1-.1.1-.3h0c0,0,0-.1,0-.1,0,0,0,0,0,0,0,0,0,0,.1-.2h0c.1,0,.4-.4.5-.4v-.5h0v-.2h-.2c0,0-.3,0-.4,0h0c0,0,0-.1-.2-.1h0c0,0,0,0,0-.2h0c0,0,0,0-.1,0h0s0,0,0,0c0,0,0,0-.2-.1h0c0-.1,0-.1,0-.1h0c0-.1,0-.1,0-.1h0c0,0,0,0,0,0h0v-.3h0c0-.1,0-.1,0-.1h0c0,0,0,0,0,0h0c0,0,0,0,0-.2h-.1c-.1-.1-.7,0-.9,0h0c0-.1,0-.1,0-.1h0q-.3-.2-.3-.4h-.1s0,0,0,0h0c0,0-.1,0-.1,0,.1,0,0,0,0-.1-.3,0-1.3.1-1.5,0h0c-.1-.1-.7,0-.8,0v-.4h0c0,0,0,0,0,0h0c0,0,0,0,0,0h0v-.3h0v-.2h0v-.4c-.1,0-.1,0-.1-.1h0v-.4h0c0-.1,0-.2,0-.2h0c0,0,0-.1,0-.1h-.3c.7-.6,1.3-1.2,2-1.7.6.5,1.3,1,1.9,1.6.6.6,1.1,1.1,1.7,1.6.8,1,1.7,2,2.4,3,.3.4.5.8.8,1.2,0,.1.1.2.2.3.3.4.6.9.8,1.3-.2.4-.3.7-.5,1.1ZM52.4,55.6c0,0-.1,0-.2,0-.7-.3-1.4-.7-2-1.2-.3-.2-.5-.4-.7-.7,0,0-.2-.2-.2-.3,0,0-.4-.5-.5-.6,0,0-.1-.1-.2-.2,0,0,0-.1-.1-.2-.3-.4-.6-.9-.8-1.4.4-.7.9-1.5,1.5-2.3,0-.1.2-.3.3-.4.6-.7,1.2-1.4,1.8-2.1.3-.3.6-.7.9-1,0,0,1,0,1.3.2h0c0,0,.2,0,.2,0h0c0,.1.5,0,.7,0v.3h0c0,.1.1.1.1.1h0c0,0,.2,0,.2,0-.2,0,0,0,0,.1h.3v.7h-.1s.1,0,0,.1c-.1,0,0,0-.1,0v.6h0v.9h0c0,.1,0,.1,0,.1,0,0,0,0,0,.1h0c0,0,0,.1,0,.1,0,0,0,0,0,0,0,0,0,0,.1,0,0,0,0,0-.1,0,0,0,0,0,.1.2h0c0,0,.1,0,.1,0h0c0,.1.1.2.2.2-.1,0-.1,0,0,0,0,0,.1,0,.2.1h0c0,0,0,.1,0,.1h0c0,.1,0,.1,0,.1.1.3,0,1.5,0,1.9s0,.8,0,.9h0v.2c0,0-.1,0-.2,0h0v.2c-.1,0,0,0-.1,0v.3h0v.3h0v.2c0-.2,0,0,.1,0,0,.1,0,.7,0,.7h0c0,.1,0,.3.2.3v.2h0c0,.1.4.1.4.2v.5c-.2,0-.4,0-.6,0-1.2,0-2.3-.2-3.3-.6ZM52.8,43.8c-.1,0,0,0-.1,0v-.3h0c0,0,0,0,0,0h0c0,0,0,0,0-.2h.1c0-.1.1,0,.1-.1,0,0,.3-.1.3-.2h.2c0,0,.4,0,.4,0-.4.4-.8.7-1.2,1.1,0,0,0,0,0,0ZM53.7,38.9c.2,0,.4,0,.7-.1.2,0,.4,0,.6,0,.3,0,.5,0,.8,0s.2,0,.3,0c.3,0,.5,0,.8,0,0,0,.2,0,.2,0,0,0,.2,0,.3,0,.5,0,1,.2,1.5.4-.2.1-.5.3-.7.5-.6.4-1.3.8-2,1.4,0,0-.1-.1-.3-.2-.5-.4-1-.7-1.5-1-.5-.3-.9-.5-1.4-.7.2,0,.5-.1.7-.2ZM53.1,44.2s0,0,0,0c0,0,0,0,0,0ZM53.1,44.2c0,0,.2-.2.3-.3v.2h0c0,.1,0,.1,0,.1h-.2ZM53.7,43.7s0,0,0,0h0c0,0,0,0,0,0,0,0,0,0,.1-.1ZM53.9,43.5s0,0,0,0h0s0,0,0,0ZM46.7,41.7c-.2-.7-.3-1.5-.1-2s.7-1,1.2-1.2c0,.4.4.7.7.9,0,0,0,0,.1,0,0,0,.1,0,.2,0,0,0,.1,0,.2,0h.1c.6,0,1.1-.4,1.3-.9.3,0,.7.2,1,.3-1.7.9-3.2,2.3-4.1,3.9-.4-.4-.6-.8-.7-1.2ZM46.8,47.4c0-.4,0-.8,0-1.2,0,0,0-.1,0-.2,0-.4.1-.7.3-1.1,0,0,0-.1,0-.2,0-.3.2-.5.3-.8,0-.2.1-.3.2-.4.1-.2.2-.4.4-.6.1-.2.2-.3.3-.5.2-.2.3-.4.5-.7,0,0,0,0,0,0,.1-.1.3-.3.4-.4.1-.1.2-.2.3-.3.2-.1.3-.3.5-.4.2-.1.3-.3.5-.4.1,0,.2-.2.3-.2.3-.2.7-.4,1-.5q0,0,.1,0c.8.3,1.6.8,2.5,1.3.3.2.6.4.9.6-.4.3-.7.6-1.1.9h-1c0,.2-.2.2-.3.2h0s0,0-.1,0h0c0,0-.1,0-.1.2h-.1v-.2s0,0-.2,0h0c0-.1,0-.2-.2-.2h0c0-.1,0-.2,0-.2h-.1c0-.1-.6,0-.6-.2h-.4c0,0-.4,0-.4,0h0c0,0-.1,0-.1,0h0c0,0-.5,0-.5,0h0c0,0-.3,0-.3,0h0c0,0-.2,0-.2,0h0q-.1,0-.1.2h0c0,0,0,.5,0,.6h0v.7h-.4l-.3.3h.2c0,0,.5,0,.5,0v.3s0,0,0,0v.2h0c0,0-.1.1-.1.1h0c0,0,.2,0,.2,0h0c0,0,0,0,0,0h0c0,0,0,0,0,0h0c0,0,.1,0,.1,0h0c0,0,.1,0,.1,0h0v.4h0c.1,0,.2,0,.3,0v-.2h0v-.4c-.1,0,0,0-.1,0h0s.1,0,.1,0h.3c0,0,0,0,0,0h0c0,0,0,0,0,0h0c0,.1.1.2.1.3h0c0,0,.2,0,.2,0h0c0,.1,0,.1,0,.1h.2c0,0,.2,0,.2,0-.3.3-.6.6-.8.9-.7.7-1.2,1.4-1.7,2,0,0,0,.1-.1.2-.6.8-1.2,1.6-1.6,2.4-.4-.9-.5-2-.5-3ZM50.1,44.1s0,0,0,0h0s0,0,0,0h0ZM50.2,43.8h0s0,0,0,0h0s0,0,0,0h0ZM49.9,43.3s0,0,0,0v-.2h0v-.4h0v-.2h.3v.5h0c0,0,0,.3,0,.5l-.3-.2ZM48.8,56.7c-1.8.1-2.1-.8-2.2-.9.7-.1,1.1-.7,1.1-1.4s-.5-1.2-1.1-1.3c.1-.5.4-1.1.6-1.6.5.9,1.1,1.7,1.8,2.5.7.7,1.4,1.2,2.3,1.7-.4.3-1.5,1-2.5,1ZM64.9,55.9c-.2.4-.5.6-.8.7-.1,0-.3,0-.4,0h0c0-.2,0-.4,0-.5,0,0,0-.1,0-.2,0-.1-.1-.2-.2-.3,0,0,0,0,0,0-.1-.1-.2-.2-.4-.2,0,0,0,0,0,0-.1,0-.2,0-.3-.1h-.2c-.6,0-1,.3-1.2.8-.2-.1-.4-.3-.6-.4.7-.4,1.3-.9,1.8-1.4,0,0,.1-.1.2-.2,0,0,0,0,0,0,0,0,.2-.2.3-.3.3-.3.5-.6.8-1,0,0,0,0,0,0,.3-.4.5-.8.7-1.3.4.8.7,1.5.9,2.1.1.4.1.9.1,1.2,0,.6-.1,1-.4,1.3Z"/>
      </g>
    </g>
    <g>
      <path class="cls-2" d="M.8,82.6v3.6c0,1,.3,1.9,1.5,1.9s1.5-.9,1.5-1.9v-3.6h.8v3.8c0,1.3-.8,2.4-2.3,2.4s-2.3-1-2.3-2.4v-3.8h.8Z"/>
      <path class="cls-2" d="M5.5,82.3l4.6,4.8v-4.5h.8v6.3l-4.6-4.8v4.5h-.8v-6.4Z"/>
      <path class="cls-2" d="M12.7,88.7h-.8v-6.1h.8v6.1Z"/>
      <path class="cls-2" d="M15.9,87.1l1.8-4.5h.8l-2.7,6.4-2.7-6.4h.8l1.8,4.5Z"/>
      <path class="cls-2" d="M19.1,82.6h3.3v.7h-2.5v1.7h2.5v.7h-2.5v2.3h2.5v.7h-3.3v-6.1Z"/>
      <path class="cls-2" d="M27.2,88.7h-.9l-1.8-2.6h-.3v2.6h-.8v-6.1h.9c.5,0,1.1,0,1.6.3.5.3.8.9.8,1.4,0,.9-.6,1.6-1.5,1.7l1.9,2.6ZM24.1,85.5h.2c.8,0,1.6-.1,1.6-1.1s-.9-1.1-1.7-1.1h-.2v2.2Z"/>
      <path class="cls-2" d="M30.5,83.7c-.2-.4-.5-.6-1-.6s-1,.3-1,.9.5.7.9.9l.4.2c.9.3,1.5.8,1.5,1.8s-.9,1.9-2,1.9-1.8-.7-1.9-1.7l.8-.2c0,.7.5,1.2,1.2,1.2s1.1-.5,1.1-1.2-.5-.9-1.1-1.2l-.4-.2c-.7-.3-1.3-.7-1.3-1.5s.9-1.6,1.8-1.6,1.2.3,1.6.9l-.6.4Z"/>
      <path class="cls-2" d="M32.9,88.7h-.8v-6.1h.8v6.1Z"/>
      <path class="cls-2" d="M34,82.6h1.3c1.9,0,3.5,1,3.5,3s-1.5,3.1-3.5,3.1h-1.2v-6.1ZM34.7,88h.3c1.6,0,2.9-.6,2.9-2.3s-1.4-2.3-2.9-2.3h-.3v4.7Z"/>
      <path class="cls-2" d="M40.3,87.1l-.7,1.5h-.8l2.9-6.3,2.9,6.3h-.8l-.7-1.5h-2.8ZM41.8,84l-1.1,2.5h2.2l-1.1-2.5Z"/>
      <path class="cls-2" d="M45.1,82.6h1.3c1.9,0,3.5,1,3.5,3s-1.5,3.1-3.5,3.1h-1.2v-6.1ZM45.9,88h.3c1.6,0,2.9-.6,2.9-2.3s-1.4-2.3-2.9-2.3h-.3v4.7Z"/>
      <path class="cls-2" d="M53.9,87.1l-.7,1.5h-.8l2.9-6.3,2.9,6.3h-.8l-.7-1.5h-2.8ZM55.3,84l-1.1,2.5h2.2l-1.1-2.5Z"/>
      <path class="cls-2" d="M59.4,82.6v3.6c0,1,.3,1.9,1.5,1.9s1.5-.9,1.5-1.9v-3.6h.8v3.8c0,1.3-.8,2.4-2.3,2.4s-2.3-1-2.3-2.4v-3.8h.8Z"/>
      <path class="cls-2" d="M65.8,88.7h-.8v-5.4h-1.5v-.7h3.7v.7h-1.5v5.4Z"/>
      <path class="cls-2" d="M73.9,85.6c0,1.8-1.4,3.2-3.2,3.2s-3.2-1.4-3.2-3.2,1.5-3.2,3.2-3.2,3.2,1.4,3.2,3.2ZM73.2,85.6c0-1.3-1-2.5-2.5-2.5s-2.5,1.1-2.5,2.5,1.1,2.5,2.5,2.5,2.5-1.1,2.5-2.5ZM71.8,81l-1.3,1.2-.4-.2,1-1.3.7.4Z"/>
      <path class="cls-2" d="M74.6,82.3l4.6,4.8v-4.5h.8v6.3l-4.6-4.8v4.5h-.8v-6.4Z"/>
      <path class="cls-2" d="M87.1,85.6c0,1.8-1.4,3.2-3.2,3.2s-3.2-1.4-3.2-3.2,1.5-3.2,3.2-3.2,3.2,1.4,3.2,3.2ZM86.3,85.6c0-1.3-1-2.5-2.5-2.5s-2.5,1.1-2.5,2.5,1.1,2.5,2.5,2.5,2.5-1.1,2.5-2.5Z"/>
      <path class="cls-2" d="M88.9,84.6h0l-.7,4h-.8l1.3-6.3,2.1,4.8,2.1-4.8,1.3,6.3h-.8l-.7-4h0l-1.8,4.1-1.8-4.1Z"/>
      <path class="cls-2" d="M95.7,87.1l-.7,1.5h-.8l2.9-6.3,2.9,6.3h-.8l-.7-1.5h-2.8ZM97.1,84l-1.1,2.5h2.2l-1.1-2.5Z"/>
      <path class="cls-2" d="M21.3,92.2h1.3c1.9,0,3.5,1,3.5,3s-1.5,3.1-3.5,3.1h-1.2v-6.1ZM22.1,97.6h.3c1.6,0,2.9-.6,2.9-2.3s-1.4-2.3-2.9-2.3h-.3v4.7Z"/>
      <path class="cls-2" d="M26.8,92.2h3.3v.7h-2.5v1.7h2.5v.7h-2.5v2.3h2.5v.7h-3.3v-6.1Z"/>
      <path class="cls-2" d="M38.5,98.4l-.5-.5c-.5.3-1.2.5-1.8.5-1.8,0-3.2-1.4-3.2-3.2s1.5-3.2,3.2-3.2,3.2,1.4,3.2,3.2-.4,1.7-1,2.2l1,.9h-.9ZM38,97c.5-.4.7-1.1.7-1.7,0-1.3-1-2.5-2.5-2.5s-2.5,1.1-2.5,2.5,1.1,2.5,2.5,2.5.8-.1,1.2-.3l-1.4-1.4h1l1,1Z"/>
      <path class="cls-2" d="M40.8,92.2v3.6c0,1,.3,1.9,1.5,1.9s1.5-.9,1.5-1.9v-3.6h.8v3.8c0,1.3-.8,2.4-2.3,2.4s-2.3-1-2.3-2.4v-3.8h.8Z"/>
      <path class="cls-2" d="M45.6,92.2h3.3v.7h-2.5v1.7h2.5v.7h-2.5v2.3h2.5v.7h-3.3v-6.1Z"/>
      <path class="cls-2" d="M53.7,98.3h-.9l-1.8-2.6h-.3v2.6h-.8v-6.1h.9c.5,0,1.1,0,1.6.3.5.3.8.9.8,1.4,0,.9-.6,1.6-1.5,1.7l1.9,2.6ZM50.7,95.1h.2c.8,0,1.6-.1,1.6-1.1s-.9-1.1-1.7-1.1h-.2v2.2Z"/>
      <path class="cls-2" d="M54.3,92.2h3.3v.7h-2.5v1.7h2.5v.7h-2.5v2.3h2.5v.7h-3.3v-6.1ZM57,90.7l-1.3,1.2-.4-.2,1-1.3.7.4Z"/>
      <path class="cls-2" d="M60.2,98.3h-.8v-5.4h-1.5v-.7h3.7v.7h-1.5v5.4Z"/>
      <path class="cls-2" d="M63.2,96.8l-.7,1.5h-.8l2.9-6.3,2.9,6.3h-.8l-.7-1.5h-2.8ZM64.6,93.6l-1.1,2.5h2.2l-1.1-2.5Z"/>
      <path class="cls-2" d="M71.9,98.3h-.9l-1.8-2.6h-.3v2.6h-.8v-6.1h.9c.5,0,1.1,0,1.6.3.5.3.8.9.8,1.4,0,.9-.6,1.6-1.5,1.7l1.9,2.6ZM68.8,95.1h.2c.8,0,1.6-.1,1.6-1.1s-.9-1.1-1.7-1.1h-.2v2.2Z"/>
      <path class="cls-2" d="M78.5,95.3c0,1.8-1.4,3.2-3.2,3.2s-3.2-1.4-3.2-3.2,1.5-3.2,3.2-3.2,3.2,1.4,3.2,3.2ZM77.7,95.3c0-1.3-1-2.5-2.5-2.5s-2.5,1.1-2.5,2.5,1.1,2.5,2.5,2.5,2.5-1.1,2.5-2.5Z"/>
    </g>
  </g>
  <g>
    <path class="cls-4" d="M38.7,15.4c0,0,.1,0,.1-.2s0-.1-.1-.1-.1,0-.1.1c0,.1,0,.2.1.2Z"/>
    <path class="cls-4" d="M48.6,18.5l-1.5-.5c2.3-1.6.7-5.9-2.2-6.3.7-3.1-.8-4.2-2.8-3.3,0,0,0,0,0,0-.9.5-1.5,1.4-2,2.2-.5.2-.9.4-1.3.7-.6-1.4-3.5-3.8-4.2-1.3-1.1-.3-2.2-.4-3.4-.1,0,.6,1,.3,1.5.7.9.5,2.1,2.2,3.4,1.6.4.4.9.7,1.6.5-.3.5,0,1.6,0,2.3-1.5,1.7.2.8.3,2-1.3.5-1.2,3.1-.5,4.2,0,1.2-.2,2.5-.3,3.7l-.9.5.3.9-.7.6,1.5,2.1h.5l-.4.6c.1.3.5.4.8.5v1.2l1.2-.2.7.7c.2-.1.6-.5.7-.7h1.4v-.6h.9c1.5-1.2.1-2.7,0-3.6-.3-.3-.8.1-1.6,0-.6,0-1.2-.6-1.8-.4l.6-1.9c.9-.2,2-.4,2.9-.7-.3,1.5.2,2.3.8,3.1.3.5.3.9,0,1.4-.3.4-.2.8-.1.9.7-.2,4,.8,2.9-.9-2.1,0-1.3-4.6-1.6-6-.2-.9-1.8-.9-2.5-1-.2,0-1,0-.7-.4,0-.3.2-1.9.3-2.3l4.2.5.4,2h.3c0,0,.4-1.1.4-1.1h.7v-1.6ZM41.7,17.8c-.9.6-.8,3-1.3,3.3-1.3.4-1.7-1.5-2.4-2h0c0,0-.5,0-.5,0,0-1.1.4-1.5.5-1.7.6.4,1.9.4,1.8,1.5-.2,1.4,1.2-1.6,1.4-1.8,0-.2,0-.2.4-.4.3,0,.6.1.9.3,0,0,0,0,.1,0-.2.2-.2.4-.4.5,0,.1-.2.2-.4.3ZM41.8,21.4h-1.2c.4-.4.8-.2,1.3-.2,0,0,0,.1-.1.2ZM37.9,21.1h1.2c0,.1.3.2.4.3-.3-.1-1.7.3-1.6-.3ZM40.7,16.3c-.3-.4-.6-.9-.5-1.5.3.2.6.2,1,.2.2.5.4.8.4,1.2-.2,0-.5.1-.7.3,0,0-.2-.2-.2-.3ZM40.6,14.5c.9.3.5-.5-.1-.4v-.3c1.4-.2,1,1.6-.1.9v-.3c.1,0,.2,0,.3,0ZM40.6,13.3v-.2c.8.5,1,0,.1-.3v-.3c1.4.2.9,1.6-.2,1v-.2ZM41.6,11.9c.7.5.4-.2,0-.4,0,0,0,0-.1,0,0,0,.2-.3.2-.4,1.3.5.6,2.1-.4.9v-.3c.2.1.3.2.3.2ZM42.8,10.3c.5.2.5.7.4,1.3h-.5c0-.2-.2-.4-.3-.5-.1,0-.4-.2-.5-.2.2-.4.6-.7.9-.6ZM42.9,11.9c3.4-.9,7,3.5,3.9,6l-.6-.2c2.2-2.9-.7-5.3-3.5-5.4v-.4h.2ZM42.4,16.6c0,0-.3-.2-.4-.1,0-.6-.2-1-.4-1.4l.2-.4c.6.4.9,1,.9,2h-.2ZM42.4,13.8c0,0-.1,0-.2,0,0,0,.3-.5.2-.5,2.4.2,3.8,2.2,2.5,4.2l-.8-.2c.3-1.4-.3-2.9-1.7-3.4ZM35.4,9.4c1.2-.3,2.9,1.2,3.2,2.3-.5-.4-1.1-.9-1.7-1-1.2,1.7-3-.3-1.5-1.2ZM37,10.8c.5.1,1,.5,1.4.8-.3.3-1.8-.4-1.4-.8ZM38,15.2c.1,0,0-.9,0-1,.7,0,1.5,0,2,.4-.4.9,0,1.9.7,2.3-.2.7-.4,1-.8,1.5-.1-.2-.2-.4-.4-.5v-.4c-.5,0-.9,0-1.2-.3,0-.4-.2-.7-.2-1-.2,0-.6,0-.7-.2l.5-.7ZM37.4,20.2c0-.2,0-.4,0-.7h.6c.1.3.2.6.4.9h-.9c0-.1-.1-.2-.1-.3ZM43.4,28.2c-.4-.2-1-.4-.9-.9.6-.3.6.6.9.9ZM46.9,28.7c1,.5-1.4.3-1.5.4-.2,0-.9.2-.9-.2.4-.4,1.9,0,2.4-.1ZM45.3,22.6c.1,1.3-.4,4.9.7,5.8h-1.5c.5-2-1.3-2.3-.7-5-1,.3-2.9.7-3.5.9-.5,1.4-.8,2.4-.8,2.4,0,0,.7-.2,2.6.5-.2,1.1,1.5.9,1.5,1.9-.2.8-.9-1.2-1.8-1-3.5-.4-5.3,2.3-4.4-3.2.4-.3,1.2-.6,1.3-1.2l.7.2.4-.8h1.2c0,0,.4-.7.4-.7h.9c.2-.2.6-.7.7-.9.5,0,2.2,0,2.2.9ZM42.1,20c0,.1,0,.3-.2.4h-.9c.1-.2.3-.6.3-.7h.9c0,0,0,.2,0,.3ZM48.2,19.7h-.3c0,0-.4.9-.4.9l-.4-1.7-4.6-.7s0,.4-.1.8h-.9c.2-.4,0-.9.6-.9,0,0,.7-.9.9-1.2l5.5,1.5v1.1c.1,0-.2,0-.2,0Z"/>
    <path class="cls-4" d="M33.5,20.2c-1.7,0-3.2,1.5-3.2,3.3s1.5,3.2,3.2,3.2,3.3-1.5,3.3-3.2-1.5-3.3-3.3-3.3Z"/>
  </g>
  <g>
    <polygon class="cls-5" points="63.2 13.7 61.4 15.4 61.3 14.9 63.2 13.7 63.2 13.7"/>
    <polygon class="cls-5" points="59.6 10.2 59.6 17.1 58.2 15.8 59.6 10.2 59.6 10.2"/>
    <polygon class="cls-5" points="55.8 13.6 57.7 15.6 57.7 15.9 57.2 15.9 55.8 13.6 55.8 13.6"/>
    <polygon class="cls-5" points="52.1 17.6 59 17.6 57.7 19 52.1 17.6 52.1 17.6"/>
    <polygon class="cls-5" points="55.8 21.2 57.7 19.4 57.7 19.4 57.8 20 55.8 21.2 55.8 21.2"/>
    <polygon class="cls-5" points="63.5 21 61.8 19.3 62.3 19.2 63.5 21 63.5 21"/>
    <polygon class="cls-5" points="59.8 25 59.8 18.1 61.2 19.4 59.8 25 59.8 25"/>
    <polygon class="cls-5" points="66.8 17.5 59.8 17.5 61.2 16.2 66.8 17.5 66.8 17.5"/>
  </g>
  <circle class="cls-2" cx="49.1" cy="38.2" r="1.5"/>
  <circle class="cls-2" cx="64.5" cy="40.2" r="1.5"/>
  <circle class="cls-2" cx="62.2" cy="56.5" r="1.5"/>
  <circle class="cls-2" cx="46.3" cy="54.5" r="1.5"/>
</svg>