<?xml version="1.0" encoding="UTF-8"?>
<svg id="layer" xmlns="http://www.w3.org/2000/svg" version="1.1" viewBox="0 0 150 59.3">
  <defs>
    <style>
      .cls-1 {
        fill: #d9272e;
        stroke-width: 0px;
      }
    </style>
  </defs>
  <path class="cls-1" d="M1.5,53.8H.3v5.4h3.1l-.2-1.2h-1.6s0-4.2,0-4.2ZM6.9,53.8h-1.5l-1.9,5.4h1.3l.4-1.1h1.8l.4,1.2,1.4-.2-1.9-5.3h0ZM5.5,57l.5-1.9.6,1.9h-1.2ZM13.7,53.8h-1.4v3.8c-.4.3-.7.4-1.1.4s-.7-.3-.7-.8v-3.5h-1.4v3.6c0,1.3.6,1.7,1.6,1.7s1.1-.2,1.5-.5v.4h1.2v-5.3h.2ZM16.5,53.8h-1.9v5.3h1.4v-1.8h.4l1.2,1.9,1.4-.2-1.3-1.9c.6-.3,1-.8,1-1.5,0-1.1-.8-1.7-2.1-1.7M16,56.4v-1.5h.4c.5,0,.9.3.9.7s-.4.8-.9.8h-.4ZM22.7,53.8h-3.3v5.4h3.4v-1.1h-2.1v-1.2h1.6v-1h-1.6v-1h2s0-1.1,0-1.1h0ZM26.4,53.8h-1.5l-1.9,5.4h1.3l.4-1.1h1.8l.4,1.2,1.4-.2s-1.9-5.3-1.9-5.3h0ZM25,57l.6-1.9.5,1.9s-1.2,0-1.2,0ZM32.7,53.8h-4.2v1.1h1.5v4.3h1.4v-4.3h1.5l-.2-1.1h0ZM36.8,53.8h-3.3v5.4h3.4v-1.1h-2.1v-1.2h1.7l-.2-1h-1.6v-1h2s0-1.1,0-1.1h0ZM39.1,53.8h1.4v5.3h-1.4v-5.3ZM45.9,53.8h-1.3v3l-1.9-3h-1.4v5.4h1.3v-3.2l2.1,3.2h1.2v-5.4h0ZM50.7,53.8h-4.3v1.1h1.5v4.3h1.3v-4.3h1.6l-.2-1.1h0ZM54.8,53.8h-3.4v5.4h3.4v-1.1h-2v-1.2h1.6v-1h-1.6v-1h2v-1.1h0ZM57.3,53.8h-1.9v5.3h1.4v-1.8h.4l1.2,1.9,1.4-.2-1.3-1.9c.6-.3,1-.8,1-1.5,0-1.1-.7-1.7-2.1-1.7M56.8,56.4v-1.5h.4c.5,0,.9.3.9.7s-.4.8-.9.8h-.4ZM64.7,53.8h-1.2v3l-1.9-3h-1.4v5.4h1.3v-3.2l2.1,3.2h1.1v-5.4h0ZM68.6,53.8h-1.5l-1.9,5.4h1.3l.4-1.1h1.8l.4,1.2,1.4-.2-1.9-5.3h0ZM67.2,57l.6-1.9.5,1.9h-1.2ZM74.9,53.8h-4.2v1.1h1.5v4.3h1.4v-4.3h1.5l-.2-1.1h0ZM75.7,53.8h1.4v5.3h-1.4v-5.3ZM80.3,53.7c-1.5,0-2.5,1.1-2.5,2.8s1,2.7,2.5,2.7h0c1.5,0,2.5-1.1,2.5-2.8s-1-2.7-2.6-2.7M80.3,58.3c-.7,0-1.2-.6-1.2-1.7s.4-1.7,1.2-1.7,1.2.6,1.2,1.7c0,1-.5,1.7-1.2,1.7M88.1,53.8h-1.2v3l-2-3h-1.4v5.4h1.3v-3.2l2.1,3.2h1.2v-5.4h0ZM92,53.8h-1.5l-1.9,5.4h1.3l.4-1.1h1.8l.4,1.2,1.4-.2-1.9-5.3h0ZM90.5,57l.5-1.9.5,1.9h-1.1ZM95.7,53.8h-1.4v5.4h3.2l-.2-1.2h-1.6v-4.2h0ZM104,53.8h-1.3v3.8c-.4.3-.7.4-1.1.4s-.7-.3-.7-.8v-3.5h-1.4v3.6c0,1.3.6,1.7,1.6,1.7s1.1-.2,1.5-.5v.4h1.2v-5.3h0ZM109.4,53.8h-1.2v3l-2-3h-1.3v5.4h1.3v-3.2l2.1,3.2h1.1v-5.4ZM110.3,53.8h1.4v5.3h-1.4v-5.3ZM113.7,53.8l-1.5.2,1.8,5.2h1.5l1.9-5.4h-1.4l-1.2,3.7-1.2-3.7h0ZM121.3,53.8h-3.4v5.4h3.5v-1.1h-2.1v-1.2h1.6v-1h-1.6v-1h2v-1.1h0ZM123.8,53.8h-1.9v5.3h1.4v-1.8h.4l1.2,1.9,1.4-.2-1.3-1.9c.6-.3,1-.8,1-1.5,0-1.1-.7-1.7-2.1-1.7M123.3,56.4v-1.5h.4c.5,0,.9.3.9.7s-.4.8-.9.8h-.4,0ZM128.4,53.8c-1,0-1.8.5-1.8,1.5s.4,1.3,1.5,1.6c.7.3.9.4.9.7s-.3.4-.6.4c-.5,0-1.1-.2-1.7-.4l-.2,1.1c.5.3,1.3.4,1.9.4,1.1,0,1.9-.4,1.9-1.6s-.4-1.3-1.6-1.6c-.6-.3-.8-.4-.8-.6s.2-.4.5-.4.9.2,1.4.4l.2-1.1c-.4-.3-.8-.4-1.5-.4M131,53.8h1.4v5.3h-1.4v-5.3ZM137.2,53.8l.2,1.1h-1.6v4.3h-1.3v-4.3h-1.5v-1.1h4.3,0ZM137.9,53.8h1.4v5.3h-1.4v-5.3ZM143.5,53.8h-3.4v5.4h3.5v-1.1h-2.1v-1.2h1.7l-.2-1h-1.5v-1h2v-1.1h0ZM146,53.8c-1,0-1.8.5-1.8,1.5s.4,1.3,1.5,1.6c.7.3.9.4.9.7s-.3.4-.6.4c-.5,0-1.1-.2-1.7-.4l-.2,1.1c.5.3,1.3.4,1.9.4,1.1,0,1.9-.4,1.9-1.6s-.4-1.3-1.6-1.6c-.6-.3-.8-.4-.8-.6s.2-.4.5-.4.9.2,1.5.4l.2-1.1c-.5-.3-1-.4-1.6-.4M149,54.2c-.4,0-.8.4-.8.8s.4.8.8.8.8-.4.8-.8-.4-.8-.8-.8M149,55.7c-.4,0-.6-.3-.6-.7s.3-.7.6-.7.6.3.6.7c0,.4-.3.7-.6.7M149,54.5h-.4v.9h.3v-.4l.2.4h.3l-.2-.4c0,0,.2,0,.2-.3s-.2-.3-.3-.3M148.9,54.9v-.2h0c0,0,0,0,0,0s0,0-.2,0h0ZM0,45.2h150v.7H0v-.7H0ZM0,0v24.3C0,27.4.6,31,4.1,33.8c4.2,3.3,11,3.6,15.8,3.6s11.7-.5,15.7-3.3c4.2-2.7,4.7-6.3,4.7-9.9V0c-4.1,0-7.7,1.3-9.3,3.1v19.8c0,1.9,0,4.4-2.6,6-1.9,1.2-5,1.5-8.6,1.5s-5.9,0-7.9-1.4c-2.3-1.5-2.4-3.5-2.4-5.5V3.1C7.8,1.3,4.2,0,0,0M95.9,0c-4.7,0-8.8,1.3-10.7,3.1l-14.7,22.3L55.8,3.1C53.9,1.3,49.8,0,45.2,0h-2.9l25.1,37.4h6.6L99,0h-3.1ZM149.5,0c-4.2,0-7.9,1.3-9.5,3.1l-14.5,16-14.4-15.9C109.4,1.3,105.7,0,101.4,0h-.4v37.4h9.2V14.3l15.2,17.3,15.2-17.3v23.2h9.4V0h-.5Z"/>
</svg>